<?xml version="1.0" encoding="UTF-8" standalone="no"?>
<!-- Created with Inkscape (http://www.inkscape.org/) -->

<svg
   width="210mm"
   height="297mm"
   viewBox="0 0 210 297"
   version="1.1"
   id="svg1"
   inkscape:version="1.3.2 (1:1.3.2+202311252150+091e20ef0f)"
   sodipodi:docname="Esboço robo colaborativo.svg"
   xmlns:inkscape="http://www.inkscape.org/namespaces/inkscape"
   xmlns:sodipodi="http://sodipodi.sourceforge.net/DTD/sodipodi-0.dtd"
   xmlns="http://www.w3.org/2000/svg"
   xmlns:svg="http://www.w3.org/2000/svg">
  <sodipodi:namedview
     id="namedview1"
     pagecolor="#ffffff"
     bordercolor="#000000"
     borderopacity="0.25"
     inkscape:showpageshadow="2"
     inkscape:pageopacity="0.0"
     inkscape:pagecheckerboard="0"
     inkscape:deskcolor="#d1d1d1"
     inkscape:document-units="mm"
     showguides="false"
     inkscape:zoom="4"
     inkscape:cx="366.125"
     inkscape:cy="326.75"
     inkscape:window-width="2490"
     inkscape:window-height="1016"
     inkscape:window-x="0"
     inkscape:window-y="0"
     inkscape:window-maximized="1"
     inkscape:current-layer="layer1">
    <sodipodi:guide
       position="98.230696,183.28808"
       orientation="0,-1"
       id="guide13"
       inkscape:locked="false" />
    <sodipodi:guide
       position="131.33255,104.60864"
       orientation="0,-1"
       id="guide72"
       inkscape:locked="false" />
    <sodipodi:guide
       position="173.95464,120.72246"
       orientation="0.70710678,-0.70710678"
       id="guide133"
       inkscape:locked="false" />
    <sodipodi:guide
       position="59.795832,82.158337"
       orientation="0.70710678,-0.70710678"
       id="guide134"
       inkscape:locked="false" />
    <sodipodi:guide
       position="85.195831,63.108336"
       orientation="0,-1"
       id="guide135"
       inkscape:locked="false" />
    <sodipodi:guide
       position="154.38437,136.53021"
       orientation="1,0"
       id="guide149"
       inkscape:locked="false" />
  </sodipodi:namedview>
  <defs
     id="defs1">
    <clipPath
       clipPathUnits="userSpaceOnUse"
       id="clipPath56">
      <path
         id="path57"
         style="fill:#ff0000;fill-opacity:1;fill-rule:nonzero;stroke:none;stroke-width:0.264583"
         d="m 108.70293,130.93929 v 61.04692 h 18.67534 v -0.62373 c -0.12677,-0.01 -0.25164,-0.0335 -0.37569,-0.0661 -0.22684,-0.0564 -0.45035,-0.12296 -0.67592,-0.18396 -0.52737,-0.14273 -0.49889,-0.62084 -0.0915,-0.65216 -0.10852,-0.20699 0.0134,-0.41602 0.26665,-0.41186 0.0118,1.9e-4 0.0238,7.9e-4 0.0362,0.002 -0.1879,-0.24533 -0.14252,-0.47572 0.0191,-0.54881 -0.0155,-0.10796 0.0275,-0.20634 0.11938,-0.26045 -0.0363,-0.0257 -0.0724,-0.0518 -0.10904,-0.077 -0.21709,-0.14858 -0.44042,-0.2883 -0.65371,-0.44235 -0.0578,-0.0418 -0.10427,-0.0855 -0.14108,-0.1297 -0.0427,-0.01 -0.0848,-0.0228 -0.12764,-0.032 -0.56394,-0.12315 -0.48356,-0.64577 -5.3e-4,-0.64182 0.05,5.3e-4 0.10443,0.006 0.16278,0.0191 0.0696,0.0152 0.13797,0.0355 0.20722,0.0522 -0.0207,-0.1021 -0.039,-0.2045 -0.0594,-0.30695 l 5.3e-4,5.2e-4 c -0.07,-0.35135 0.094,-0.54791 0.27543,-0.54208 0.0597,0.002 0.11998,0.0311 0.1757,0.0786 0.0543,-0.0582 0.12484,-0.0872 0.19793,-0.0837 0.14249,0.007 0.29364,0.13593 0.34778,0.40928 0.0164,0.0832 0.0296,0.16697 0.0434,0.25063 0.0378,-0.008 0.0787,-0.0132 0.12299,-0.0155 0.0384,-0.002 0.0769,-0.004 0.11523,-0.006 0.0482,-0.002 0.0965,-0.003 0.1447,-0.004 v -56.83071 z" />
    </clipPath>
    <clipPath
       clipPathUnits="userSpaceOnUse"
       id="clipPath58">
      <path
         id="path58"
         style="fill:#ff0000;fill-opacity:1;fill-rule:nonzero;stroke:none;stroke-width:0.264583"
         d="m 127.02532,124.55209 v 63.23851 c 0.0295,-0.005 0.0605,-0.009 0.0935,-0.0103 0.0384,-0.002 0.0769,-0.004 0.11524,-0.006 0.0716,-0.003 0.1434,-0.004 0.21498,-0.004 0.21474,-7.9e-4 0.42915,0.008 0.64389,0.0176 v -5.3e-4 c 0.15008,0.007 0.26278,0.0482 0.33951,0.10645 h 5.15214 v -63.34135 z" />
    </clipPath>
    <clipPath
       clipPathUnits="userSpaceOnUse"
       id="clipPath127">
      <path
         id="path128"
         style="fill:#ff0000;fill-opacity:1;fill-rule:nonzero;stroke:none;stroke-width:0.264583"
         d="m 88.821453,169.03723 v 12.88603 h 12.893267 v -4.34237 c -0.0648,0.11489 -0.14234,0.2222 -0.21497,0.33228 -0.0992,0.13637 -0.21177,0.26096 -0.31678,0.39274 -0.0993,0.13481 -0.18774,0.27697 -0.28164,0.41548 -0.006,0.009 -0.0125,0.0175 -0.0186,0.0263 -0.0287,0.087 -0.0563,0.17444 -0.0909,0.25941 -0.0558,0.14432 -0.11917,0.28553 -0.20567,0.41445 -0.10552,0.15663 -0.2141,0.31239 -0.3452,0.44906 -0.19577,0.19913 -0.410912,0.37727 -0.626835,0.55398 -0.153226,0.12383 -0.31427,0.24102 -0.454753,0.3793 -0.07861,0.0774 -0.157787,0.0816 -0.202054,0.0475 -0.02056,0.0162 -0.04084,0.0322 -0.06253,0.0476 -0.06416,0.0431 -0.130895,0.0815 -0.200504,0.11523 -0.03485,0.0163 -0.06982,0.0319 -0.105421,0.0465 l -5.29e-4,5.3e-4 c -0.01593,0.0197 -0.03801,0.0388 -0.06666,0.0563 -0.03158,0.0193 -0.06324,0.0383 -0.0956,0.0563 -0.07366,0.0449 -0.148219,0.0884 -0.22221,0.13281 -0.08084,0.0443 -0.160298,0.0914 -0.244946,0.12816 -0.09813,0.0435 -0.195638,0.0878 -0.295071,0.12816 -0.09691,0.0392 -0.194122,0.0787 -0.293524,0.1111 -0.08728,0.0284 -0.152109,0.0107 -0.185002,-0.0253 -0.116157,0.0418 -0.233455,0.0804 -0.355534,0.10129 -0.124221,0.0214 -0.249348,0.0352 -0.374652,0.0486 -0.129826,0.0139 -0.194138,-0.0535 -0.186553,-0.11937 -0.0186,0.002 -0.03718,0.005 -0.05581,0.007 -0.229936,0.0269 -0.249901,-0.20506 -0.02016,-0.23307 0.0943,-0.0115 0.187928,-0.0248 0.282152,-0.0367 0.119851,-0.0126 0.237921,-0.0358 0.355536,-0.0615 0.08904,-0.018 0.177197,-0.0413 0.264065,-0.0677 0.06329,-0.018 0.124341,-0.0411 0.185518,-0.0651 0.06262,-0.0256 0.125865,-0.0504 0.188103,-0.077 0.09165,-0.0447 0.189047,-0.0743 0.286287,-0.10387 0.114551,-0.0355 0.229002,-0.0724 0.340032,-0.11782 0.08172,-0.034 0.162049,-0.07 0.238228,-0.11523 0.05226,-0.0349 0.104254,-0.0698 0.156062,-0.10542 0.03437,-0.0229 0.06974,-0.0435 0.104904,-0.0651 0.02484,-0.0153 0.04783,-0.0245 0.06976,-0.0305 0.02792,-0.0208 0.05553,-0.0416 0.08372,-0.062 -0.08999,-0.016 -0.122677,-0.1313 0.0016,-0.23152 0.07671,-0.062 0.154559,-0.1228 0.225827,-0.1912 0.07413,-0.0696 0.145606,-0.14218 0.219626,-0.21187 0.0329,-0.0312 0.06567,-0.0625 0.0987,-0.0935 -0.01905,-0.10507 0.0319,-0.24146 0.188103,-0.36484 0.05348,-0.0422 0.106444,-0.085 0.157093,-0.13075 0.01273,-0.0115 0.02506,-0.0235 0.03773,-0.0351 0.02066,-0.0286 0.04477,-0.0577 0.0739,-0.0868 0.06649,-0.0664 0.1393,-0.12586 0.207737,-0.19017 0.04331,-0.0499 0.08443,-0.10156 0.120405,-0.15762 0.0789,-0.11998 0.15362,-0.24284 0.21963,-0.37052 0.0839,-0.1557 0.16524,-0.31236 0.24494,-0.47025 0.0754,-0.14269 0.1609,-0.2798 0.231,-0.42529 0.0635,-0.13582 0.11706,-0.27561 0.15916,-0.41962 0.0446,-0.14795 0.0898,-0.29651 0.11059,-0.4501 0.0296,-0.162 0.0625,-0.32334 0.0977,-0.48421 0.0371,-0.15013 0.0784,-0.29959 0.10955,-0.45114 0.0339,-0.17495 0.0613,-0.35093 0.0806,-0.52813 0.009,-0.0685 0.0165,-0.13702 0.0243,-0.20566 -0.007,-0.016 -0.0154,-0.0293 -0.0196,-0.0496 -0.045,-0.21472 -0.0903,-0.42931 -0.13591,-0.64389 -0.0311,-0.0246 -0.057,-0.0669 -0.0651,-0.13333 -0.0107,-0.0898 -0.006,-0.0452 -0.0155,-0.13436 -0.0192,-0.14107 -0.0487,-0.27991 -0.093,-0.41547 -0.058,-0.17295 -0.12795,-0.34155 -0.20825,-0.5054 -0.10694,-0.22028 -0.22401,-0.4349 -0.3359,-0.65267 -0.0225,-0.0434 -0.0447,-0.0866 -0.0677,-0.12971 -0.0469,0.0105 -0.10827,-0.0113 -0.16227,-0.0847 -0.0489,-0.0665 -0.0984,-0.13233 -0.15244,-0.19483 -0.116439,-0.13514 -0.235779,-0.26858 -0.343647,-0.41082 -0.125767,-0.1631 -0.245367,-0.33118 -0.377756,-0.48886 -5.3e-4,-0.004 -5.3e-4,-0.009 -0.0031,-0.0109 -0.01421,-0.013 -0.03669,-0.01 -0.05478,-0.016 -0.04846,-0.0155 -0.09164,-0.0387 -0.129706,-0.0729 -0.01125,-0.0105 -0.02122,-0.0222 -0.03204,-0.0331 -0.033,-7.9e-4 -0.06618,-0.002 -0.09922,-0.002 -0.217572,0.005 -0.435012,0.0129 -0.652674,0.0109 -0.532453,-0.005 -0.532453,-0.54296 0,-0.53795 0.07281,5.2e-4 0.14577,-9e-5 0.218591,-0.001 -0.156887,-0.12552 -0.319619,-0.24318 -0.479557,-0.36483 -0.138835,-0.10432 -0.277252,-0.21036 -0.427366,-0.29817 -0.04434,-0.026 -0.0725,-0.0563 -0.08836,-0.0863 -0.01275,-0.004 -0.02551,-0.007 -0.03824,-0.0109 -0.173087,-0.0472 -0.346829,-0.0937 -0.522449,-0.13074 -0.08771,-0.0185 -0.133876,-0.0642 -0.146761,-0.11058 -0.02016,5.3e-4 -0.04032,5.3e-4 -0.06046,5.3e-4 -0.106622,0.003 -0.213043,0.006 -0.31936,0.015 -0.230722,0.0191 -0.251857,-0.21365 -0.02119,-0.23306 0.111056,-0.01 0.222467,-0.0125 0.33383,-0.0155 0.06867,-8e-4 0.137496,-0.004 0.206187,-0.004 0.02289,-7e-5 0.04584,2.6e-4 0.06873,0.001 0.05144,0.003 0.102528,0.008 0.153995,0.0114 0.05417,0.005 0.108485,0.0119 0.162264,0.0196 0.06543,0.009 0.130696,0.0209 0.195855,0.0315 0.07378,0.0141 0.146621,0.0298 0.218075,0.0532 0.06491,0.0209 0.126632,0.0504 0.1881,0.0796 0.05502,0.0221 0.109088,0.0463 0.163298,0.0703 0.05879,0.0267 0.114089,0.0601 0.169498,0.093 0.07913,0.0471 0.106791,0.10659 0.100253,0.15451 0.04961,0.0205 0.09919,0.0412 0.147794,0.0641 0.110056,0.0522 0.204567,0.12813 0.295589,0.20774 0.03837,-0.0389 0.09203,-0.0621 0.15503,-0.063 0.09592,-0.001 0.212567,0.0484 0.326078,0.17002 0.03476,0.0373 0.07227,0.0717 0.106971,0.10904 0.07478,0.0804 0.167407,0.18925 0.238228,0.26975 0.0044,0.005 0.0041,0.005 0.0083,0.009 0.08379,0.009 0.167662,0.0165 0.25115,0.0279 0.13271,0.0221 0.26474,0.0463 0.39791,0.0656 0.52496,0.0763 0.45012,0.60477 -0.0713,0.53279 0.25786,0.26962 0.51802,0.53708 0.76533,0.81649 0.16911,0.20196 0.33567,0.40943 0.46612,0.63923 0.0231,0.0407 0.0433,0.0826 0.0651,0.12403 0.0292,0.0602 0.0552,0.12176 0.0791,0.18396 v -3.93567 z m 12.550137,4.99814 c 0.004,0.0177 0.007,0.0355 0.0109,0.0532 0.003,0.0155 0.007,0.031 0.01,0.0465 -2.5e-4,-0.006 -1.5e-4,-0.011 -5.2e-4,-0.0165 -2.3e-4,-0.004 -2.7e-4,-0.008 -5.3e-4,-0.0114 -0.007,-0.0239 -0.012,-0.0481 -0.0191,-0.0718 z m -1.917713,5.94951 v 5.3e-4 c -0.03322,0.0312 -0.06618,0.0625 -0.09922,0.0941 -0.03038,0.0287 -0.06005,0.0581 -0.08992,0.0873 0.07495,-0.0569 0.148632,-0.11509 0.220657,-0.1757 -0.01087,-0.001 -0.02138,-0.003 -0.03152,-0.006 z" />
    </clipPath>
    <clipPath
       clipPathUnits="userSpaceOnUse"
       id="clipPath127-6">
      <path
         id="path128-1"
         style="fill:#ff0000;fill-opacity:1;fill-rule:nonzero;stroke:none;stroke-width:0.264583"
         d="m 88.821453,169.03723 v 12.88603 h 12.893267 v -4.34237 c -0.0648,0.11489 -0.14234,0.2222 -0.21497,0.33228 -0.0992,0.13637 -0.21177,0.26096 -0.31678,0.39274 -0.0993,0.13481 -0.18774,0.27697 -0.28164,0.41548 -0.006,0.009 -0.0125,0.0175 -0.0186,0.0263 -0.0287,0.087 -0.0563,0.17444 -0.0909,0.25941 -0.0558,0.14432 -0.11917,0.28553 -0.20567,0.41445 -0.10552,0.15663 -0.2141,0.31239 -0.3452,0.44906 -0.19577,0.19913 -0.410912,0.37727 -0.626835,0.55398 -0.153226,0.12383 -0.31427,0.24102 -0.454753,0.3793 -0.07861,0.0774 -0.157787,0.0816 -0.202054,0.0475 -0.02056,0.0162 -0.04084,0.0322 -0.06253,0.0476 -0.06416,0.0431 -0.130895,0.0815 -0.200504,0.11523 -0.03485,0.0163 -0.06982,0.0319 -0.105421,0.0465 l -5.29e-4,5.3e-4 c -0.01593,0.0197 -0.03801,0.0388 -0.06666,0.0563 -0.03158,0.0193 -0.06324,0.0383 -0.0956,0.0563 -0.07366,0.0449 -0.148219,0.0884 -0.22221,0.13281 -0.08084,0.0443 -0.160298,0.0914 -0.244946,0.12816 -0.09813,0.0435 -0.195638,0.0878 -0.295071,0.12816 -0.09691,0.0392 -0.194122,0.0787 -0.293524,0.1111 -0.08728,0.0284 -0.152109,0.0107 -0.185002,-0.0253 -0.116157,0.0418 -0.233455,0.0804 -0.355534,0.10129 -0.124221,0.0214 -0.249348,0.0352 -0.374652,0.0486 -0.129826,0.0139 -0.194138,-0.0535 -0.186553,-0.11937 -0.0186,0.002 -0.03718,0.005 -0.05581,0.007 -0.229936,0.0269 -0.249901,-0.20506 -0.02016,-0.23307 0.0943,-0.0115 0.187928,-0.0248 0.282152,-0.0367 0.119851,-0.0126 0.237921,-0.0358 0.355536,-0.0615 0.08904,-0.018 0.177197,-0.0413 0.264065,-0.0677 0.06329,-0.018 0.124341,-0.0411 0.185518,-0.0651 0.06262,-0.0256 0.125865,-0.0504 0.188103,-0.077 0.09165,-0.0447 0.189047,-0.0743 0.286287,-0.10387 0.114551,-0.0355 0.229002,-0.0724 0.340032,-0.11782 0.08172,-0.034 0.162049,-0.07 0.238228,-0.11523 0.05226,-0.0349 0.104254,-0.0698 0.156062,-0.10542 0.03437,-0.0229 0.06974,-0.0435 0.104904,-0.0651 0.02484,-0.0153 0.04783,-0.0245 0.06976,-0.0305 0.02792,-0.0208 0.05553,-0.0416 0.08372,-0.062 -0.08999,-0.016 -0.122677,-0.1313 0.0016,-0.23152 0.07671,-0.062 0.154559,-0.1228 0.225827,-0.1912 0.07413,-0.0696 0.145606,-0.14218 0.219626,-0.21187 0.0329,-0.0312 0.06567,-0.0625 0.0987,-0.0935 -0.01905,-0.10507 0.0319,-0.24146 0.188103,-0.36484 0.05348,-0.0422 0.106444,-0.085 0.157093,-0.13075 0.01273,-0.0115 0.02506,-0.0235 0.03773,-0.0351 0.02066,-0.0286 0.04477,-0.0577 0.0739,-0.0868 0.06649,-0.0664 0.1393,-0.12586 0.207737,-0.19017 0.04331,-0.0499 0.08442,-0.10156 0.120405,-0.15762 0.0789,-0.11998 0.15362,-0.24284 0.21963,-0.37052 0.0839,-0.1557 0.16524,-0.31236 0.24494,-0.47025 0.0754,-0.14269 0.1609,-0.2798 0.231,-0.42529 0.0635,-0.13582 0.11706,-0.27561 0.15916,-0.41962 0.0446,-0.14795 0.0898,-0.29651 0.11059,-0.4501 0.0296,-0.162 0.0625,-0.32334 0.0977,-0.48421 0.0371,-0.15013 0.0784,-0.29959 0.10955,-0.45114 0.0339,-0.17495 0.0613,-0.35093 0.0806,-0.52813 0.009,-0.0685 0.0165,-0.13702 0.0243,-0.20566 -0.007,-0.016 -0.0154,-0.0293 -0.0196,-0.0496 -0.045,-0.21472 -0.0903,-0.42931 -0.13591,-0.64389 -0.0311,-0.0246 -0.057,-0.0669 -0.0651,-0.13333 -0.0107,-0.0898 -0.006,-0.0452 -0.0155,-0.13436 -0.0192,-0.14107 -0.0487,-0.27991 -0.093,-0.41547 -0.058,-0.17295 -0.12795,-0.34155 -0.20825,-0.5054 -0.10694,-0.22028 -0.22401,-0.4349 -0.3359,-0.65267 -0.0225,-0.0434 -0.0447,-0.0866 -0.0677,-0.12971 -0.0469,0.0105 -0.10827,-0.0113 -0.16227,-0.0847 -0.0489,-0.0665 -0.0984,-0.13233 -0.15244,-0.19483 -0.116439,-0.13514 -0.235779,-0.26858 -0.343647,-0.41082 -0.125767,-0.1631 -0.245367,-0.33118 -0.377756,-0.48886 -5.3e-4,-0.004 -5.3e-4,-0.009 -0.0031,-0.0109 -0.01421,-0.013 -0.03669,-0.01 -0.05478,-0.016 -0.04846,-0.0155 -0.09164,-0.0387 -0.129706,-0.0729 -0.01125,-0.0105 -0.02122,-0.0222 -0.03204,-0.0331 -0.033,-7.9e-4 -0.06618,-0.002 -0.09922,-0.002 -0.217572,0.005 -0.435012,0.0129 -0.652674,0.0109 -0.532453,-0.005 -0.532453,-0.54296 0,-0.53795 0.07281,5.2e-4 0.14577,-9e-5 0.218591,-0.001 -0.156887,-0.12552 -0.319619,-0.24318 -0.479557,-0.36483 -0.138835,-0.10432 -0.277252,-0.21036 -0.427366,-0.29817 -0.04434,-0.026 -0.0725,-0.0563 -0.08836,-0.0863 -0.01275,-0.004 -0.02551,-0.007 -0.03824,-0.0109 -0.173087,-0.0472 -0.346829,-0.0937 -0.522449,-0.13074 -0.08771,-0.0185 -0.133876,-0.0642 -0.146761,-0.11058 -0.02016,5.3e-4 -0.04032,5.3e-4 -0.06046,5.3e-4 -0.106622,0.003 -0.213043,0.006 -0.31936,0.015 -0.230722,0.0191 -0.251857,-0.21365 -0.02119,-0.23306 0.111056,-0.01 0.222467,-0.0125 0.33383,-0.0155 0.06867,-8e-4 0.137496,-0.004 0.206187,-0.004 0.02289,-7e-5 0.04584,2.6e-4 0.06873,0.001 0.05144,0.003 0.102528,0.008 0.153995,0.0114 0.05417,0.005 0.108485,0.0119 0.162264,0.0196 0.06543,0.009 0.130696,0.0209 0.195855,0.0315 0.07378,0.0141 0.146621,0.0298 0.218075,0.0532 0.06491,0.0209 0.126632,0.0504 0.1881,0.0796 0.05502,0.0221 0.109088,0.0463 0.163298,0.0703 0.05879,0.0267 0.114089,0.0601 0.169498,0.093 0.07913,0.0471 0.106791,0.10659 0.100253,0.15451 0.04961,0.0205 0.09919,0.0412 0.147794,0.0641 0.110056,0.0522 0.204567,0.12813 0.295589,0.20774 0.03837,-0.0389 0.09203,-0.0621 0.15503,-0.063 0.09592,-0.001 0.212567,0.0484 0.326078,0.17002 0.03476,0.0373 0.07227,0.0717 0.106971,0.10904 0.07478,0.0804 0.167407,0.18925 0.238228,0.26975 0.0044,0.005 0.0041,0.005 0.0083,0.009 0.08379,0.009 0.167662,0.0165 0.25115,0.0279 0.13271,0.0221 0.26474,0.0463 0.39791,0.0656 0.52496,0.0763 0.45012,0.60477 -0.0713,0.53279 0.25786,0.26962 0.51802,0.53708 0.76533,0.81649 0.16911,0.20196 0.33567,0.40943 0.46612,0.63923 0.0231,0.0407 0.0433,0.0826 0.0651,0.12403 0.0292,0.0602 0.0552,0.12176 0.0791,0.18396 v -3.93567 z m 12.550137,4.99814 c 0.004,0.0177 0.007,0.0355 0.0109,0.0532 0.003,0.0155 0.007,0.031 0.01,0.0465 -2.5e-4,-0.006 -1.5e-4,-0.011 -5.2e-4,-0.0165 -2.3e-4,-0.004 -2.7e-4,-0.008 -5.3e-4,-0.0114 -0.007,-0.0239 -0.012,-0.0481 -0.0191,-0.0718 z m -1.917713,5.94951 v 5.3e-4 c -0.03322,0.0312 -0.06618,0.0625 -0.09922,0.0941 -0.03038,0.0287 -0.06005,0.0581 -0.08992,0.0873 0.07495,-0.0569 0.148632,-0.11509 0.220657,-0.1757 -0.01087,-0.001 -0.02138,-0.003 -0.03152,-0.006 z" />
    </clipPath>
    <clipPath
       clipPathUnits="userSpaceOnUse"
       id="clipPath127-6-8">
      <path
         id="path128-1-5"
         style="fill:#ff0000;fill-opacity:1;fill-rule:nonzero;stroke:none;stroke-width:0.264583"
         d="m 88.821453,169.03723 v 12.88603 h 12.893267 v -4.34237 c -0.0648,0.11489 -0.14234,0.2222 -0.21497,0.33228 -0.0992,0.13637 -0.21177,0.26096 -0.31678,0.39274 -0.0993,0.13481 -0.18774,0.27697 -0.28164,0.41548 -0.006,0.009 -0.0125,0.0175 -0.0186,0.0263 -0.0287,0.087 -0.0563,0.17444 -0.0909,0.25941 -0.0558,0.14432 -0.11917,0.28553 -0.20567,0.41445 -0.10552,0.15663 -0.2141,0.31239 -0.3452,0.44906 -0.19577,0.19913 -0.410912,0.37727 -0.626835,0.55398 -0.153226,0.12383 -0.31427,0.24102 -0.454753,0.3793 -0.07861,0.0774 -0.157787,0.0816 -0.202054,0.0475 -0.02056,0.0162 -0.04084,0.0322 -0.06253,0.0476 -0.06416,0.0431 -0.130895,0.0815 -0.200504,0.11523 -0.03485,0.0163 -0.06982,0.0319 -0.105421,0.0465 l -5.29e-4,5.3e-4 c -0.01593,0.0197 -0.03801,0.0388 -0.06666,0.0563 -0.03158,0.0193 -0.06324,0.0383 -0.0956,0.0563 -0.07366,0.0449 -0.148219,0.0884 -0.22221,0.13281 -0.08084,0.0443 -0.160298,0.0914 -0.244946,0.12816 -0.09813,0.0435 -0.195638,0.0878 -0.295071,0.12816 -0.09691,0.0392 -0.194122,0.0787 -0.293524,0.1111 -0.08728,0.0284 -0.152109,0.0107 -0.185002,-0.0253 -0.116157,0.0418 -0.233455,0.0804 -0.355534,0.10129 -0.124221,0.0214 -0.249348,0.0352 -0.374652,0.0486 -0.129826,0.0139 -0.194138,-0.0535 -0.186553,-0.11937 -0.0186,0.002 -0.03718,0.005 -0.05581,0.007 -0.229936,0.0269 -0.249901,-0.20506 -0.02016,-0.23307 0.0943,-0.0115 0.187928,-0.0248 0.282152,-0.0367 0.119851,-0.0126 0.237921,-0.0358 0.355536,-0.0615 0.08904,-0.018 0.177197,-0.0413 0.264065,-0.0677 0.06329,-0.018 0.124341,-0.0411 0.185518,-0.0651 0.06262,-0.0256 0.125865,-0.0504 0.188103,-0.077 0.09165,-0.0447 0.189047,-0.0743 0.286287,-0.10387 0.114551,-0.0355 0.229002,-0.0724 0.340032,-0.11782 0.08172,-0.034 0.162049,-0.07 0.238228,-0.11523 0.05226,-0.0349 0.104254,-0.0698 0.156062,-0.10542 0.03437,-0.0229 0.06974,-0.0435 0.104904,-0.0651 0.02484,-0.0153 0.04783,-0.0245 0.06976,-0.0305 0.02792,-0.0208 0.05553,-0.0416 0.08372,-0.062 -0.08999,-0.016 -0.122677,-0.1313 0.0016,-0.23152 0.07671,-0.062 0.154559,-0.1228 0.225827,-0.1912 0.07413,-0.0696 0.145606,-0.14218 0.219626,-0.21187 0.0329,-0.0312 0.06567,-0.0625 0.0987,-0.0935 -0.01905,-0.10507 0.0319,-0.24146 0.188103,-0.36484 0.05348,-0.0422 0.106444,-0.085 0.157093,-0.13075 0.01273,-0.0115 0.02506,-0.0235 0.03773,-0.0351 0.02066,-0.0286 0.04477,-0.0577 0.0739,-0.0868 0.06649,-0.0664 0.1393,-0.12586 0.207737,-0.19017 0.04331,-0.0499 0.08441,-0.10156 0.120405,-0.15762 0.0789,-0.11998 0.15362,-0.24284 0.21963,-0.37052 0.0839,-0.1557 0.16524,-0.31236 0.24494,-0.47025 0.0754,-0.14269 0.1609,-0.2798 0.231,-0.42529 0.0635,-0.13582 0.11706,-0.27561 0.15916,-0.41962 0.0446,-0.14795 0.0898,-0.29651 0.11059,-0.4501 0.0296,-0.162 0.0625,-0.32334 0.0977,-0.48421 0.0371,-0.15013 0.0784,-0.29959 0.10955,-0.45114 0.0339,-0.17495 0.0613,-0.35093 0.0806,-0.52813 0.009,-0.0685 0.0165,-0.13702 0.0243,-0.20566 -0.007,-0.016 -0.0154,-0.0293 -0.0196,-0.0496 -0.045,-0.21472 -0.0903,-0.42931 -0.13591,-0.64389 -0.0311,-0.0246 -0.057,-0.0669 -0.0651,-0.13333 -0.0107,-0.0898 -0.006,-0.0452 -0.0155,-0.13436 -0.0192,-0.14107 -0.0487,-0.27991 -0.093,-0.41547 -0.058,-0.17295 -0.12795,-0.34155 -0.20825,-0.5054 -0.10694,-0.22028 -0.22401,-0.4349 -0.3359,-0.65267 -0.0225,-0.0434 -0.0447,-0.0866 -0.0677,-0.12971 -0.0469,0.0105 -0.10827,-0.0113 -0.16227,-0.0847 -0.0489,-0.0665 -0.0984,-0.13233 -0.15244,-0.19483 -0.116439,-0.13514 -0.235779,-0.26858 -0.343647,-0.41082 -0.125767,-0.1631 -0.245367,-0.33118 -0.377756,-0.48886 -5.3e-4,-0.004 -5.3e-4,-0.009 -0.0031,-0.0109 -0.01421,-0.013 -0.03669,-0.01 -0.05478,-0.016 -0.04846,-0.0155 -0.09164,-0.0387 -0.129706,-0.0729 -0.01125,-0.0105 -0.02122,-0.0222 -0.03204,-0.0331 -0.033,-7.9e-4 -0.06618,-0.002 -0.09922,-0.002 -0.217572,0.005 -0.435012,0.0129 -0.652674,0.0109 -0.532453,-0.005 -0.532453,-0.54296 0,-0.53795 0.07281,5.2e-4 0.14577,-9e-5 0.218591,-0.001 -0.156887,-0.12552 -0.319619,-0.24318 -0.479557,-0.36483 -0.138835,-0.10432 -0.277252,-0.21036 -0.427366,-0.29817 -0.04434,-0.026 -0.0725,-0.0563 -0.08836,-0.0863 -0.01275,-0.004 -0.02551,-0.007 -0.03824,-0.0109 -0.173087,-0.0472 -0.346829,-0.0937 -0.522449,-0.13074 -0.08771,-0.0185 -0.133876,-0.0642 -0.146761,-0.11058 -0.02016,5.3e-4 -0.04032,5.3e-4 -0.06046,5.3e-4 -0.106622,0.003 -0.213043,0.006 -0.31936,0.015 -0.230722,0.0191 -0.251857,-0.21365 -0.02119,-0.23306 0.111056,-0.01 0.222467,-0.0125 0.33383,-0.0155 0.06867,-8e-4 0.137496,-0.004 0.206187,-0.004 0.02289,-7e-5 0.04584,2.6e-4 0.06873,0.001 0.05144,0.003 0.102528,0.008 0.153995,0.0114 0.05417,0.005 0.108485,0.0119 0.162264,0.0196 0.06543,0.009 0.130696,0.0209 0.195855,0.0315 0.07378,0.0141 0.146621,0.0298 0.218075,0.0532 0.06491,0.0209 0.126632,0.0504 0.1881,0.0796 0.05502,0.0221 0.109088,0.0463 0.163298,0.0703 0.05879,0.0267 0.114089,0.0601 0.169498,0.093 0.07913,0.0471 0.106791,0.10659 0.100253,0.15451 0.04961,0.0205 0.09919,0.0412 0.147794,0.0641 0.110056,0.0522 0.204567,0.12813 0.295589,0.20774 0.03837,-0.0389 0.09203,-0.0621 0.15503,-0.063 0.09592,-0.001 0.212567,0.0484 0.326078,0.17002 0.03476,0.0373 0.07227,0.0717 0.106971,0.10904 0.07478,0.0804 0.167407,0.18925 0.238228,0.26975 0.0044,0.005 0.0041,0.005 0.0083,0.009 0.08379,0.009 0.167662,0.0165 0.25115,0.0279 0.13271,0.0221 0.26474,0.0463 0.39791,0.0656 0.52496,0.0763 0.45012,0.60477 -0.0713,0.53279 0.25786,0.26962 0.51802,0.53708 0.76533,0.81649 0.16911,0.20196 0.33567,0.40943 0.46612,0.63923 0.0231,0.0407 0.0433,0.0826 0.0651,0.12403 0.0292,0.0602 0.0552,0.12176 0.0791,0.18396 v -3.93567 z m 12.550137,4.99814 c 0.004,0.0177 0.007,0.0355 0.0109,0.0532 0.003,0.0155 0.007,0.031 0.01,0.0465 -2.5e-4,-0.006 -1.5e-4,-0.011 -5.2e-4,-0.0165 -2.3e-4,-0.004 -2.7e-4,-0.008 -5.3e-4,-0.0114 -0.007,-0.0239 -0.012,-0.0481 -0.0191,-0.0718 z m -1.917713,5.94951 v 5.3e-4 c -0.03322,0.0312 -0.06618,0.0625 -0.09922,0.0941 -0.03038,0.0287 -0.06005,0.0581 -0.08992,0.0873 0.07495,-0.0569 0.148632,-0.11509 0.220657,-0.1757 -0.01087,-0.001 -0.02138,-0.003 -0.03152,-0.006 z" />
    </clipPath>
    <clipPath
       clipPathUnits="userSpaceOnUse"
       id="clipPath127-6-8-0">
      <path
         id="path128-1-5-1"
         style="fill:#ff0000;fill-opacity:1;fill-rule:nonzero;stroke:none;stroke-width:0.264583"
         d="m 88.821453,169.03723 v 12.88603 h 12.893267 v -4.34237 c -0.0648,0.11489 -0.14234,0.2222 -0.21497,0.33228 -0.0992,0.13637 -0.21177,0.26096 -0.31678,0.39274 -0.0993,0.13481 -0.18774,0.27697 -0.28164,0.41548 -0.006,0.009 -0.0125,0.0175 -0.0186,0.0263 -0.0287,0.087 -0.0563,0.17444 -0.0909,0.25941 -0.0558,0.14432 -0.11917,0.28553 -0.20567,0.41445 -0.10552,0.15663 -0.2141,0.31239 -0.3452,0.44906 -0.19577,0.19913 -0.410912,0.37727 -0.626835,0.55398 -0.153226,0.12383 -0.31427,0.24102 -0.454753,0.3793 -0.07861,0.0774 -0.157787,0.0816 -0.202054,0.0475 -0.02056,0.0162 -0.04084,0.0322 -0.06253,0.0476 -0.06416,0.0431 -0.130895,0.0815 -0.200504,0.11523 -0.03485,0.0163 -0.06982,0.0319 -0.105421,0.0465 l -5.29e-4,5.3e-4 c -0.01593,0.0197 -0.03801,0.0388 -0.06666,0.0563 -0.03158,0.0193 -0.06324,0.0383 -0.0956,0.0563 -0.07366,0.0449 -0.148219,0.0884 -0.22221,0.13281 -0.08084,0.0443 -0.160298,0.0914 -0.244946,0.12816 -0.09813,0.0435 -0.195638,0.0878 -0.295071,0.12816 -0.09691,0.0392 -0.194122,0.0787 -0.293524,0.1111 -0.08728,0.0284 -0.152109,0.0107 -0.185002,-0.0253 -0.116157,0.0418 -0.233455,0.0804 -0.355534,0.10129 -0.124221,0.0214 -0.249348,0.0352 -0.374652,0.0486 -0.129826,0.0139 -0.194138,-0.0535 -0.186553,-0.11937 -0.0186,0.002 -0.03718,0.005 -0.05581,0.007 -0.229936,0.0269 -0.249901,-0.20506 -0.02016,-0.23307 0.0943,-0.0115 0.187928,-0.0248 0.282152,-0.0367 0.119851,-0.0126 0.237921,-0.0358 0.355536,-0.0615 0.08904,-0.018 0.177197,-0.0413 0.264065,-0.0677 0.06329,-0.018 0.124341,-0.0411 0.185518,-0.0651 0.06262,-0.0256 0.125865,-0.0504 0.188103,-0.077 0.09165,-0.0447 0.189047,-0.0743 0.286287,-0.10387 0.114551,-0.0355 0.229002,-0.0724 0.340032,-0.11782 0.08172,-0.034 0.162049,-0.07 0.238228,-0.11523 0.05226,-0.0349 0.104254,-0.0698 0.156062,-0.10542 0.03437,-0.0229 0.06974,-0.0435 0.104904,-0.0651 0.02484,-0.0153 0.04783,-0.0245 0.06976,-0.0305 0.02792,-0.0208 0.05553,-0.0416 0.08372,-0.062 -0.08999,-0.016 -0.122677,-0.1313 0.0016,-0.23152 0.07671,-0.062 0.154559,-0.1228 0.225827,-0.1912 0.07413,-0.0696 0.145606,-0.14218 0.219626,-0.21187 0.0329,-0.0312 0.06567,-0.0625 0.0987,-0.0935 -0.01905,-0.10507 0.0319,-0.24146 0.188103,-0.36484 0.05348,-0.0422 0.106444,-0.085 0.157093,-0.13075 0.01273,-0.0115 0.02506,-0.0235 0.03773,-0.0351 0.02066,-0.0286 0.04477,-0.0577 0.0739,-0.0868 0.06649,-0.0664 0.1393,-0.12586 0.207737,-0.19017 0.04331,-0.0499 0.08441,-0.10156 0.120405,-0.15762 0.0789,-0.11998 0.15362,-0.24284 0.21963,-0.37052 0.0839,-0.1557 0.16524,-0.31236 0.24494,-0.47025 0.0754,-0.14269 0.1609,-0.2798 0.231,-0.42529 0.0635,-0.13582 0.11706,-0.27561 0.15916,-0.41962 0.0446,-0.14795 0.0898,-0.29651 0.11059,-0.4501 0.0296,-0.162 0.0625,-0.32334 0.0977,-0.48421 0.0371,-0.15013 0.0784,-0.29959 0.10955,-0.45114 0.0339,-0.17495 0.0613,-0.35093 0.0806,-0.52813 0.009,-0.0685 0.0165,-0.13702 0.0243,-0.20566 -0.007,-0.016 -0.0154,-0.0293 -0.0196,-0.0496 -0.045,-0.21472 -0.0903,-0.42931 -0.13591,-0.64389 -0.0311,-0.0246 -0.057,-0.0669 -0.0651,-0.13333 -0.0107,-0.0898 -0.006,-0.0452 -0.0155,-0.13436 -0.0192,-0.14107 -0.0487,-0.27991 -0.093,-0.41547 -0.058,-0.17295 -0.12795,-0.34155 -0.20825,-0.5054 -0.10694,-0.22028 -0.22401,-0.4349 -0.3359,-0.65267 -0.0225,-0.0434 -0.0447,-0.0866 -0.0677,-0.12971 -0.0469,0.0105 -0.10827,-0.0113 -0.16227,-0.0847 -0.0489,-0.0665 -0.0984,-0.13233 -0.15244,-0.19483 -0.116439,-0.13514 -0.235779,-0.26858 -0.343647,-0.41082 -0.125767,-0.1631 -0.245367,-0.33118 -0.377756,-0.48886 -5.3e-4,-0.004 -5.3e-4,-0.009 -0.0031,-0.0109 -0.01421,-0.013 -0.03669,-0.01 -0.05478,-0.016 -0.04846,-0.0155 -0.09164,-0.0387 -0.129706,-0.0729 -0.01125,-0.0105 -0.02122,-0.0222 -0.03204,-0.0331 -0.033,-7.9e-4 -0.06618,-0.002 -0.09922,-0.002 -0.217572,0.005 -0.435012,0.0129 -0.652674,0.0109 -0.532453,-0.005 -0.532453,-0.54296 0,-0.53795 0.07281,5.2e-4 0.14577,-9e-5 0.218591,-0.001 -0.156887,-0.12552 -0.319619,-0.24318 -0.479557,-0.36483 -0.138835,-0.10432 -0.277252,-0.21036 -0.427366,-0.29817 -0.04434,-0.026 -0.0725,-0.0563 -0.08836,-0.0863 -0.01275,-0.004 -0.02551,-0.007 -0.03824,-0.0109 -0.173087,-0.0472 -0.346829,-0.0937 -0.522449,-0.13074 -0.08771,-0.0185 -0.133876,-0.0642 -0.146761,-0.11058 -0.02016,5.3e-4 -0.04032,5.3e-4 -0.06046,5.3e-4 -0.106622,0.003 -0.213043,0.006 -0.31936,0.015 -0.230722,0.0191 -0.251857,-0.21365 -0.02119,-0.23306 0.111056,-0.01 0.222467,-0.0125 0.33383,-0.0155 0.06867,-8e-4 0.137496,-0.004 0.206187,-0.004 0.02289,-7e-5 0.04584,2.6e-4 0.06873,0.001 0.05144,0.003 0.102528,0.008 0.153995,0.0114 0.05417,0.005 0.108485,0.0119 0.162264,0.0196 0.06543,0.009 0.130696,0.0209 0.195855,0.0315 0.07378,0.0141 0.146621,0.0298 0.218075,0.0532 0.06491,0.0209 0.126632,0.0504 0.1881,0.0796 0.05502,0.0221 0.109088,0.0463 0.163298,0.0703 0.05879,0.0267 0.114089,0.0601 0.169498,0.093 0.07913,0.0471 0.106791,0.10659 0.100253,0.15451 0.04961,0.0205 0.09919,0.0412 0.147794,0.0641 0.110056,0.0522 0.204567,0.12813 0.295589,0.20774 0.03837,-0.0389 0.09203,-0.0621 0.15503,-0.063 0.09592,-0.001 0.212567,0.0484 0.326078,0.17002 0.03476,0.0373 0.07227,0.0717 0.106971,0.10904 0.07478,0.0804 0.167407,0.18925 0.238228,0.26975 0.0044,0.005 0.0041,0.005 0.0083,0.009 0.08379,0.009 0.167662,0.0165 0.25115,0.0279 0.13271,0.0221 0.26474,0.0463 0.39791,0.0656 0.52496,0.0763 0.45012,0.60477 -0.0713,0.53279 0.25786,0.26962 0.51802,0.53708 0.76533,0.81649 0.16911,0.20196 0.33567,0.40943 0.46612,0.63923 0.0231,0.0407 0.0433,0.0826 0.0651,0.12403 0.0292,0.0602 0.0552,0.12176 0.0791,0.18396 v -3.93567 z m 12.550137,4.99814 c 0.004,0.0177 0.007,0.0355 0.0109,0.0532 0.003,0.0155 0.007,0.031 0.01,0.0465 -2.5e-4,-0.006 -1.5e-4,-0.011 -5.2e-4,-0.0165 -2.3e-4,-0.004 -2.7e-4,-0.008 -5.3e-4,-0.0114 -0.007,-0.0239 -0.012,-0.0481 -0.0191,-0.0718 z m -1.917713,5.94951 v 5.3e-4 c -0.03322,0.0312 -0.06618,0.0625 -0.09922,0.0941 -0.03038,0.0287 -0.06005,0.0581 -0.08992,0.0873 0.07495,-0.0569 0.148632,-0.11509 0.220657,-0.1757 -0.01087,-0.001 -0.02138,-0.003 -0.03152,-0.006 z" />
    </clipPath>
    <clipPath
       clipPathUnits="userSpaceOnUse"
       id="clipPath127-6-8-0-7">
      <path
         id="path128-1-5-1-7"
         style="fill:#ff0000;fill-opacity:1;fill-rule:nonzero;stroke:none;stroke-width:0.264583"
         d="m 88.821453,169.03723 v 12.88603 h 12.893267 v -4.34237 c -0.0648,0.11489 -0.14234,0.2222 -0.21497,0.33228 -0.0992,0.13637 -0.21177,0.26096 -0.31678,0.39274 -0.0993,0.13481 -0.18774,0.27697 -0.28164,0.41548 -0.006,0.009 -0.0125,0.0175 -0.0186,0.0263 -0.0287,0.087 -0.0563,0.17444 -0.0909,0.25941 -0.0558,0.14432 -0.11917,0.28553 -0.20567,0.41445 -0.10552,0.15663 -0.2141,0.31239 -0.3452,0.44906 -0.19577,0.19913 -0.410912,0.37727 -0.626835,0.55398 -0.153226,0.12383 -0.31427,0.24102 -0.454753,0.3793 -0.07861,0.0774 -0.157787,0.0816 -0.202054,0.0475 -0.02056,0.0162 -0.04084,0.0322 -0.06253,0.0476 -0.06416,0.0431 -0.130895,0.0815 -0.200504,0.11523 -0.03485,0.0163 -0.06982,0.0319 -0.105421,0.0465 l -5.29e-4,5.3e-4 c -0.01593,0.0197 -0.03801,0.0388 -0.06666,0.0563 -0.03158,0.0193 -0.06324,0.0383 -0.0956,0.0563 -0.07366,0.0449 -0.148219,0.0884 -0.22221,0.13281 -0.08084,0.0443 -0.160298,0.0914 -0.244946,0.12816 -0.09813,0.0435 -0.195638,0.0878 -0.295071,0.12816 -0.09691,0.0392 -0.194122,0.0787 -0.293524,0.1111 -0.08728,0.0284 -0.152109,0.0107 -0.185002,-0.0253 -0.116157,0.0418 -0.233455,0.0804 -0.355534,0.10129 -0.124221,0.0214 -0.249348,0.0352 -0.374652,0.0486 -0.129826,0.0139 -0.194138,-0.0535 -0.186553,-0.11937 -0.0186,0.002 -0.03718,0.005 -0.05581,0.007 -0.229936,0.0269 -0.249901,-0.20506 -0.02016,-0.23307 0.0943,-0.0115 0.187928,-0.0248 0.282152,-0.0367 0.119851,-0.0126 0.237921,-0.0358 0.355536,-0.0615 0.08904,-0.018 0.177197,-0.0413 0.264065,-0.0677 0.06329,-0.018 0.124341,-0.0411 0.185518,-0.0651 0.06262,-0.0256 0.125865,-0.0504 0.188103,-0.077 0.09165,-0.0447 0.189047,-0.0743 0.286287,-0.10387 0.114551,-0.0355 0.229002,-0.0724 0.340032,-0.11782 0.08172,-0.034 0.162049,-0.07 0.238228,-0.11523 0.05226,-0.0349 0.104254,-0.0698 0.156062,-0.10542 0.03437,-0.0229 0.06974,-0.0435 0.104904,-0.0651 0.02484,-0.0153 0.04783,-0.0245 0.06976,-0.0305 0.02792,-0.0208 0.05553,-0.0416 0.08372,-0.062 -0.08999,-0.016 -0.122677,-0.1313 0.0016,-0.23152 0.07671,-0.062 0.154559,-0.1228 0.225827,-0.1912 0.07413,-0.0696 0.145606,-0.14218 0.219626,-0.21187 0.0329,-0.0312 0.06567,-0.0625 0.0987,-0.0935 -0.01905,-0.10507 0.0319,-0.24146 0.188103,-0.36484 0.05348,-0.0422 0.106444,-0.085 0.157093,-0.13075 0.01273,-0.0115 0.02506,-0.0235 0.03773,-0.0351 0.02066,-0.0286 0.04477,-0.0577 0.0739,-0.0868 0.06649,-0.0664 0.1393,-0.12586 0.207737,-0.19017 0.04331,-0.0499 0.08441,-0.10156 0.120405,-0.15762 0.0789,-0.11998 0.15362,-0.24284 0.21963,-0.37052 0.0839,-0.1557 0.16524,-0.31236 0.24494,-0.47025 0.0754,-0.14269 0.1609,-0.2798 0.231,-0.42529 0.0635,-0.13582 0.11706,-0.27561 0.15916,-0.41962 0.0446,-0.14795 0.0898,-0.29651 0.11059,-0.4501 0.0296,-0.162 0.0625,-0.32334 0.0977,-0.48421 0.0371,-0.15013 0.0784,-0.29959 0.10955,-0.45114 0.0339,-0.17495 0.0613,-0.35093 0.0806,-0.52813 0.009,-0.0685 0.0165,-0.13702 0.0243,-0.20566 -0.007,-0.016 -0.0154,-0.0293 -0.0196,-0.0496 -0.045,-0.21472 -0.0903,-0.42931 -0.13591,-0.64389 -0.0311,-0.0246 -0.057,-0.0669 -0.0651,-0.13333 -0.0107,-0.0898 -0.006,-0.0452 -0.0155,-0.13436 -0.0192,-0.14107 -0.0487,-0.27991 -0.093,-0.41547 -0.058,-0.17295 -0.12795,-0.34155 -0.20825,-0.5054 -0.10694,-0.22028 -0.22401,-0.4349 -0.3359,-0.65267 -0.0225,-0.0434 -0.0447,-0.0866 -0.0677,-0.12971 -0.0469,0.0105 -0.10827,-0.0113 -0.16227,-0.0847 -0.0489,-0.0665 -0.0984,-0.13233 -0.15244,-0.19483 -0.116439,-0.13514 -0.235779,-0.26858 -0.343647,-0.41082 -0.125767,-0.1631 -0.245367,-0.33118 -0.377756,-0.48886 -5.3e-4,-0.004 -5.3e-4,-0.009 -0.0031,-0.0109 -0.01421,-0.013 -0.03669,-0.01 -0.05478,-0.016 -0.04846,-0.0155 -0.09164,-0.0387 -0.129706,-0.0729 -0.01125,-0.0105 -0.02122,-0.0222 -0.03204,-0.0331 -0.033,-7.9e-4 -0.06618,-0.002 -0.09922,-0.002 -0.217572,0.005 -0.435012,0.0129 -0.652674,0.0109 -0.532453,-0.005 -0.532453,-0.54296 0,-0.53795 0.07281,5.2e-4 0.14577,-9e-5 0.218591,-0.001 -0.156887,-0.12552 -0.319619,-0.24318 -0.479557,-0.36483 -0.138835,-0.10432 -0.277252,-0.21036 -0.427366,-0.29817 -0.04434,-0.026 -0.0725,-0.0563 -0.08836,-0.0863 -0.01275,-0.004 -0.02551,-0.007 -0.03824,-0.0109 -0.173087,-0.0472 -0.346829,-0.0937 -0.522449,-0.13074 -0.08771,-0.0185 -0.133876,-0.0642 -0.146761,-0.11058 -0.02016,5.3e-4 -0.04032,5.3e-4 -0.06046,5.3e-4 -0.106622,0.003 -0.213043,0.006 -0.31936,0.015 -0.230722,0.0191 -0.251857,-0.21365 -0.02119,-0.23306 0.111056,-0.01 0.222467,-0.0125 0.33383,-0.0155 0.06867,-8e-4 0.137496,-0.004 0.206187,-0.004 0.02289,-7e-5 0.04584,2.6e-4 0.06873,0.001 0.05144,0.003 0.102528,0.008 0.153995,0.0114 0.05417,0.005 0.108485,0.0119 0.162264,0.0196 0.06543,0.009 0.130696,0.0209 0.195855,0.0315 0.07378,0.0141 0.146621,0.0298 0.218075,0.0532 0.06491,0.0209 0.126632,0.0504 0.1881,0.0796 0.05502,0.0221 0.109088,0.0463 0.163298,0.0703 0.05879,0.0267 0.114089,0.0601 0.169498,0.093 0.07913,0.0471 0.106791,0.10659 0.100253,0.15451 0.04961,0.0205 0.09919,0.0412 0.147794,0.0641 0.110056,0.0522 0.204567,0.12813 0.295589,0.20774 0.03837,-0.0389 0.09203,-0.0621 0.15503,-0.063 0.09592,-0.001 0.212567,0.0484 0.326078,0.17002 0.03476,0.0373 0.07227,0.0717 0.106971,0.10904 0.07478,0.0804 0.167407,0.18925 0.238228,0.26975 0.0044,0.005 0.0041,0.005 0.0083,0.009 0.08379,0.009 0.167662,0.0165 0.25115,0.0279 0.13271,0.0221 0.26474,0.0463 0.39791,0.0656 0.52496,0.0763 0.45012,0.60477 -0.0713,0.53279 0.25786,0.26962 0.51802,0.53708 0.76533,0.81649 0.16911,0.20196 0.33567,0.40943 0.46612,0.63923 0.0231,0.0407 0.0433,0.0826 0.0651,0.12403 0.0292,0.0602 0.0552,0.12176 0.0791,0.18396 v -3.93567 z m 12.550137,4.99814 c 0.004,0.0177 0.007,0.0355 0.0109,0.0532 0.003,0.0155 0.007,0.031 0.01,0.0465 -2.5e-4,-0.006 -1.5e-4,-0.011 -5.2e-4,-0.0165 -2.3e-4,-0.004 -2.7e-4,-0.008 -5.3e-4,-0.0114 -0.007,-0.0239 -0.012,-0.0481 -0.0191,-0.0718 z m -1.917713,5.94951 v 5.3e-4 c -0.03322,0.0312 -0.06618,0.0625 -0.09922,0.0941 -0.03038,0.0287 -0.06005,0.0581 -0.08992,0.0873 0.07495,-0.0569 0.148632,-0.11509 0.220657,-0.1757 -0.01087,-0.001 -0.02138,-0.003 -0.03152,-0.006 z" />
    </clipPath>
    <clipPath
       clipPathUnits="userSpaceOnUse"
       id="clipPath127-6-8-9">
      <path
         id="path128-1-5-9"
         style="fill:#ff0000;fill-opacity:1;fill-rule:nonzero;stroke:none;stroke-width:0.264583"
         d="m 88.821453,169.03723 v 12.88603 h 12.893267 v -4.34237 c -0.0648,0.11489 -0.14234,0.2222 -0.21497,0.33228 -0.0992,0.13637 -0.21177,0.26096 -0.31678,0.39274 -0.0993,0.13481 -0.18774,0.27697 -0.28164,0.41548 -0.006,0.009 -0.0125,0.0175 -0.0186,0.0263 -0.0287,0.087 -0.0563,0.17444 -0.0909,0.25941 -0.0558,0.14432 -0.11917,0.28553 -0.20567,0.41445 -0.10552,0.15663 -0.2141,0.31239 -0.3452,0.44906 -0.19577,0.19913 -0.410912,0.37727 -0.626835,0.55398 -0.153226,0.12383 -0.31427,0.24102 -0.454753,0.3793 -0.07861,0.0774 -0.157787,0.0816 -0.202054,0.0475 -0.02056,0.0162 -0.04084,0.0322 -0.06253,0.0476 -0.06416,0.0431 -0.130895,0.0815 -0.200504,0.11523 -0.03485,0.0163 -0.06982,0.0319 -0.105421,0.0465 l -5.29e-4,5.3e-4 c -0.01593,0.0197 -0.03801,0.0388 -0.06666,0.0563 -0.03158,0.0193 -0.06324,0.0383 -0.0956,0.0563 -0.07366,0.0449 -0.148219,0.0884 -0.22221,0.13281 -0.08084,0.0443 -0.160298,0.0914 -0.244946,0.12816 -0.09813,0.0435 -0.195638,0.0878 -0.295071,0.12816 -0.09691,0.0392 -0.194122,0.0787 -0.293524,0.1111 -0.08728,0.0284 -0.152109,0.0107 -0.185002,-0.0253 -0.116157,0.0418 -0.233455,0.0804 -0.355534,0.10129 -0.124221,0.0214 -0.249348,0.0352 -0.374652,0.0486 -0.129826,0.0139 -0.194138,-0.0535 -0.186553,-0.11937 -0.0186,0.002 -0.03718,0.005 -0.05581,0.007 -0.229936,0.0269 -0.249901,-0.20506 -0.02016,-0.23307 0.0943,-0.0115 0.187928,-0.0248 0.282152,-0.0367 0.119851,-0.0126 0.237921,-0.0358 0.355536,-0.0615 0.08904,-0.018 0.177197,-0.0413 0.264065,-0.0677 0.06329,-0.018 0.124341,-0.0411 0.185518,-0.0651 0.06262,-0.0256 0.125865,-0.0504 0.188103,-0.077 0.09165,-0.0447 0.189047,-0.0743 0.286287,-0.10387 0.114551,-0.0355 0.229002,-0.0724 0.340032,-0.11782 0.08172,-0.034 0.162049,-0.07 0.238228,-0.11523 0.05226,-0.0349 0.104254,-0.0698 0.156062,-0.10542 0.03437,-0.0229 0.06974,-0.0435 0.104904,-0.0651 0.02484,-0.0153 0.04783,-0.0245 0.06976,-0.0305 0.02792,-0.0208 0.05553,-0.0416 0.08372,-0.062 -0.08999,-0.016 -0.122677,-0.1313 0.0016,-0.23152 0.07671,-0.062 0.154559,-0.1228 0.225827,-0.1912 0.07413,-0.0696 0.145606,-0.14218 0.219626,-0.21187 0.0329,-0.0312 0.06567,-0.0625 0.0987,-0.0935 -0.01905,-0.10507 0.0319,-0.24146 0.188103,-0.36484 0.05348,-0.0422 0.106444,-0.085 0.157093,-0.13075 0.01273,-0.0115 0.02506,-0.0235 0.03773,-0.0351 0.02066,-0.0286 0.04477,-0.0577 0.0739,-0.0868 0.06649,-0.0664 0.1393,-0.12586 0.207737,-0.19017 0.04331,-0.0499 0.08441,-0.10156 0.120405,-0.15762 0.0789,-0.11998 0.15362,-0.24284 0.21963,-0.37052 0.0839,-0.1557 0.16524,-0.31236 0.24494,-0.47025 0.0754,-0.14269 0.1609,-0.2798 0.231,-0.42529 0.0635,-0.13582 0.11706,-0.27561 0.15916,-0.41962 0.0446,-0.14795 0.0898,-0.29651 0.11059,-0.4501 0.0296,-0.162 0.0625,-0.32334 0.0977,-0.48421 0.0371,-0.15013 0.0784,-0.29959 0.10955,-0.45114 0.0339,-0.17495 0.0613,-0.35093 0.0806,-0.52813 0.009,-0.0685 0.0165,-0.13702 0.0243,-0.20566 -0.007,-0.016 -0.0154,-0.0293 -0.0196,-0.0496 -0.045,-0.21472 -0.0903,-0.42931 -0.13591,-0.64389 -0.0311,-0.0246 -0.057,-0.0669 -0.0651,-0.13333 -0.0107,-0.0898 -0.006,-0.0452 -0.0155,-0.13436 -0.0192,-0.14107 -0.0487,-0.27991 -0.093,-0.41547 -0.058,-0.17295 -0.12795,-0.34155 -0.20825,-0.5054 -0.10694,-0.22028 -0.22401,-0.4349 -0.3359,-0.65267 -0.0225,-0.0434 -0.0447,-0.0866 -0.0677,-0.12971 -0.0469,0.0105 -0.10827,-0.0113 -0.16227,-0.0847 -0.0489,-0.0665 -0.0984,-0.13233 -0.15244,-0.19483 -0.116439,-0.13514 -0.235779,-0.26858 -0.343647,-0.41082 -0.125767,-0.1631 -0.245367,-0.33118 -0.377756,-0.48886 -5.3e-4,-0.004 -5.3e-4,-0.009 -0.0031,-0.0109 -0.01421,-0.013 -0.03669,-0.01 -0.05478,-0.016 -0.04846,-0.0155 -0.09164,-0.0387 -0.129706,-0.0729 -0.01125,-0.0105 -0.02122,-0.0222 -0.03204,-0.0331 -0.033,-7.9e-4 -0.06618,-0.002 -0.09922,-0.002 -0.217572,0.005 -0.435012,0.0129 -0.652674,0.0109 -0.532453,-0.005 -0.532453,-0.54296 0,-0.53795 0.07281,5.2e-4 0.14577,-9e-5 0.218591,-0.001 -0.156887,-0.12552 -0.319619,-0.24318 -0.479557,-0.36483 -0.138835,-0.10432 -0.277252,-0.21036 -0.427366,-0.29817 -0.04434,-0.026 -0.0725,-0.0563 -0.08836,-0.0863 -0.01275,-0.004 -0.02551,-0.007 -0.03824,-0.0109 -0.173087,-0.0472 -0.346829,-0.0937 -0.522449,-0.13074 -0.08771,-0.0185 -0.133876,-0.0642 -0.146761,-0.11058 -0.02016,5.3e-4 -0.04032,5.3e-4 -0.06046,5.3e-4 -0.106622,0.003 -0.213043,0.006 -0.31936,0.015 -0.230722,0.0191 -0.251857,-0.21365 -0.02119,-0.23306 0.111056,-0.01 0.222467,-0.0125 0.33383,-0.0155 0.06867,-8e-4 0.137496,-0.004 0.206187,-0.004 0.02289,-7e-5 0.04584,2.6e-4 0.06873,0.001 0.05144,0.003 0.102528,0.008 0.153995,0.0114 0.05417,0.005 0.108485,0.0119 0.162264,0.0196 0.06543,0.009 0.130696,0.0209 0.195855,0.0315 0.07378,0.0141 0.146621,0.0298 0.218075,0.0532 0.06491,0.0209 0.126632,0.0504 0.1881,0.0796 0.05502,0.0221 0.109088,0.0463 0.163298,0.0703 0.05879,0.0267 0.114089,0.0601 0.169498,0.093 0.07913,0.0471 0.106791,0.10659 0.100253,0.15451 0.04961,0.0205 0.09919,0.0412 0.147794,0.0641 0.110056,0.0522 0.204567,0.12813 0.295589,0.20774 0.03837,-0.0389 0.09203,-0.0621 0.15503,-0.063 0.09592,-0.001 0.212567,0.0484 0.326078,0.17002 0.03476,0.0373 0.07227,0.0717 0.106971,0.10904 0.07478,0.0804 0.167407,0.18925 0.238228,0.26975 0.0044,0.005 0.0041,0.005 0.0083,0.009 0.08379,0.009 0.167662,0.0165 0.25115,0.0279 0.13271,0.0221 0.26474,0.0463 0.39791,0.0656 0.52496,0.0763 0.45012,0.60477 -0.0713,0.53279 0.25786,0.26962 0.51802,0.53708 0.76533,0.81649 0.16911,0.20196 0.33567,0.40943 0.46612,0.63923 0.0231,0.0407 0.0433,0.0826 0.0651,0.12403 0.0292,0.0602 0.0552,0.12176 0.0791,0.18396 v -3.93567 z m 12.550137,4.99814 c 0.004,0.0177 0.007,0.0355 0.0109,0.0532 0.003,0.0155 0.007,0.031 0.01,0.0465 -2.5e-4,-0.006 -1.5e-4,-0.011 -5.2e-4,-0.0165 -2.3e-4,-0.004 -2.7e-4,-0.008 -5.3e-4,-0.0114 -0.007,-0.0239 -0.012,-0.0481 -0.0191,-0.0718 z m -1.917713,5.94951 v 5.3e-4 c -0.03322,0.0312 -0.06618,0.0625 -0.09922,0.0941 -0.03038,0.0287 -0.06005,0.0581 -0.08992,0.0873 0.07495,-0.0569 0.148632,-0.11509 0.220657,-0.1757 -0.01087,-0.001 -0.02138,-0.003 -0.03152,-0.006 z" />
    </clipPath>
  </defs>
  <g
     inkscape:label="Layer 1"
     inkscape:groupmode="layer"
     id="layer1">
    <ellipse
       style="fill:none;stroke:#000000;stroke-width:0.264999;stroke-dasharray:none;stroke-opacity:1"
       id="path72"
       cx="99.5755"
       cy="179.30688"
       rx="6.3142424"
       ry="6.3105884" />
    <ellipse
       style="fill:none;stroke:#000000;stroke-width:0.264999;stroke-dasharray:none;stroke-opacity:1"
       id="path72-7"
       cx="95.267944"
       cy="175.48021"
       rx="6.3142424"
       ry="6.3105884"
       clip-path="url(#clipPath127)"
       transform="translate(-13.621907,3.6876302)" />
    <path
       style="fill:none;stroke:#000000;stroke-width:0.264999;stroke-dasharray:none;stroke-opacity:1"
       d="m 81.615815,172.87215 18.042638,0.0792 v 0"
       id="path73" />
    <path
       style="fill:none;stroke:#000000;stroke-width:0.264999;stroke-dasharray:none;stroke-opacity:1"
       d="m 81.646875,185.5115 18.064018,0.0589"
       id="path74" />
    <ellipse
       style="fill:none;stroke:#000000;stroke-width:0.264999;stroke-dasharray:none;stroke-opacity:1"
       id="path72-4"
       cx="85.253891"
       cy="117.0219"
       rx="6.3142424"
       ry="6.3105884" />
    <ellipse
       style="fill:none;stroke:#000000;stroke-width:0.264999;stroke-dasharray:none;stroke-opacity:1"
       id="path72-7-8"
       cx="95.267944"
       cy="175.48021"
       rx="6.3142424"
       ry="6.3105884"
       clip-path="url(#clipPath127-6)"
       transform="translate(-27.943515,-58.597349)" />
    <path
       style="fill:none;stroke:#000000;stroke-width:0.264999;stroke-dasharray:none;stroke-opacity:1"
       d="m 67.294205,110.58717 18.04264,0.0792 v 0"
       id="path73-3" />
    <path
       style="fill:none;stroke:#000000;stroke-width:0.264999;stroke-dasharray:none;stroke-opacity:1"
       d="m 67.325265,123.22652 18.06402,0.0589"
       id="path74-7" />
    <ellipse
       style="fill:none;stroke:#000000;stroke-width:0.264999;stroke-dasharray:none;stroke-opacity:1"
       id="path72-4-8"
       cx="153.35825"
       cy="73.381104"
       rx="6.3142424"
       ry="6.3105884" />
    <ellipse
       style="fill:none;stroke:#000000;stroke-width:0.264999;stroke-dasharray:none;stroke-opacity:1"
       id="path72-7-8-3"
       cx="95.267944"
       cy="175.48021"
       rx="6.3142424"
       ry="6.3105884"
       clip-path="url(#clipPath127-6-8)"
       transform="translate(40.160829,-102.23812)" />
    <path
       style="fill:none;stroke:#000000;stroke-width:0.264999;stroke-dasharray:none;stroke-opacity:1"
       d="m 135.39855,66.946386 18.04264,0.0792 v 0"
       id="path73-3-0" />
    <path
       style="fill:none;stroke:#000000;stroke-width:0.264999;stroke-dasharray:none;stroke-opacity:1"
       d="m 135.42961,79.585736 18.06402,0.0589"
       id="path74-7-7" />
    <ellipse
       style="fill:none;stroke:#000000;stroke-width:0.233783;stroke-dasharray:none;stroke-opacity:1"
       id="path72-4-8-7"
       cx="26.395931"
       cy="-145.63803"
       rx="4.6169729"
       ry="6.7169585"
       transform="matrix(-0.71428499,0.69985496,-0.78557711,-0.61876377,0,0)"
       inkscape:transform-center-x="14.557215"
       inkscape:transform-center-y="-20.002571" />
    <ellipse
       style="fill:none;stroke:#000000;stroke-width:0.264999;stroke-dasharray:none;stroke-opacity:1"
       id="path72-7-8-3-7"
       cx="95.267944"
       cy="175.48021"
       rx="6.3142424"
       ry="6.3105884"
       clip-path="url(#clipPath127-6-8-0)"
       transform="matrix(-0.52228504,0.51173379,-0.83616432,-0.65860906,301.52349,166.32635)"
       inkscape:transform-center-x="5.0767046"
       inkscape:transform-center-y="-29.086109" />
    <path
       style="fill:none;stroke:#000000;stroke-width:0.232818;stroke-dasharray:none;stroke-opacity:1"
       d="m 110.31619,103.63625 -9.48959,9.18088 v 0"
       id="path73-3-0-4"
       inkscape:transform-center-x="4.5414945"
       inkscape:transform-center-y="-20.364736" />
    <path
       style="fill:none;stroke:#000000;stroke-width:0.232818;stroke-dasharray:none;stroke-opacity:1"
       d="M 99.731401,95.327747 90.2475,104.53285"
       id="path74-7-7-7"
       inkscape:transform-center-x="15.123442"
       inkscape:transform-center-y="-28.661122" />
    <ellipse
       style="fill:none;stroke:#000000;stroke-width:0.22625;stroke-dasharray:none;stroke-opacity:1"
       id="path72-4-8-7-9"
       cx="-201.94693"
       cy="95.724419"
       rx="4.5891676"
       ry="6.329155"
       transform="matrix(-0.02365185,-0.99972026,0.99992289,-0.01241797,0,0)" />
    <ellipse
       style="fill:none;stroke:#000000;stroke-width:0.264999;stroke-dasharray:none;stroke-opacity:1"
       id="path72-7-8-3-7-5"
       cx="95.267944"
       cy="175.48021"
       rx="6.3142424"
       ry="6.3105884"
       clip-path="url(#clipPath127-6-8-0-7)"
       transform="matrix(-0.01719007,-0.72659292,1.0028648,-0.01245451,-73.682994,285.13741)" />
    <path
       style="fill:none;stroke:#000000;stroke-width:0.226243;stroke-dasharray:none;stroke-opacity:1"
       d="m 94.349042,213.83125 -0.23076,-13.11064 v 0"
       id="path73-3-0-4-4" />
    <path
       style="fill:none;stroke:#000000;stroke-width:0.226243;stroke-dasharray:none;stroke-opacity:1"
       d="m 107.02408,213.65127 -0.25134,-13.12593"
       id="path74-7-7-7-1" />
    <path
       style="fill:none;stroke:#000000;stroke-width:0.264999;stroke-dasharray:none;stroke-opacity:1"
       d="M 73.250051,123.38291 89.5391,172.54837 v 0"
       id="path130" />
    <path
       style="fill:none;stroke:#000000;stroke-width:0.163034;stroke-dasharray:none;stroke-opacity:1"
       d="M 108.21988,95.996888 129.54547,74.99802"
       id="path131" />
    <path
       style="fill:none;stroke:#000000;stroke-width:0.264999;stroke-dasharray:none;stroke-opacity:1"
       d="m 153.35299,73.675127 0.62485,18.633591"
       id="path132" />
    <path
       style="fill:none;stroke:#000000;stroke-width:0.264999;stroke-dasharray:none;stroke-opacity:1"
       d="m 99.697065,178.92802 0.551395,21.56672"
       id="path133" />
    <path
       style="fill:none;stroke:#000000;stroke-width:0.264999;stroke-dasharray:none;stroke-opacity:1"
       d="m 82.264749,192.39475 72.116651,0.0208 -41.51907,41.45585 -72.131081,0.10451 z"
       id="path135" />
    <path
       style="fill:none;stroke:#000000;stroke-width:0.264999;stroke-dasharray:none;stroke-opacity:1"
       d="m 151.48504,71.854489 3.99278,3.692541"
       id="path140" />
    <path
       style="fill:none;stroke:#000000;stroke-width:0.264999;stroke-dasharray:none;stroke-opacity:1"
       d="m 151.52638,75.581135 3.70572,-3.719409"
       id="path141" />
    <path
       style="fill:none;stroke:#000000;stroke-width:0.264999;stroke-dasharray:none;stroke-opacity:1"
       d="m 97.945119,177.15342 3.682941,3.83696"
       id="path142" />
    <path
       style="fill:none;stroke:#000000;stroke-width:0.264999;stroke-dasharray:none;stroke-opacity:1"
       d="m 101.66332,177.13752 -3.78562,3.67235"
       id="path143" />
    <path
       style="fill:none;stroke:#000000;stroke-width:0.264999;stroke-dasharray:none;stroke-opacity:1"
       d="m 98.071367,198.84967 4.246033,2.5394"
       id="path144" />
    <path
       style="fill:none;stroke:#000000;stroke-width:0.264999;stroke-dasharray:none;stroke-opacity:1"
       d="m 98.227397,201.47165 3.802253,-2.65176"
       id="path145" />
    <path
       style="fill:none;stroke:#000000;stroke-width:0.458309;stroke-dasharray:none;stroke-opacity:1"
       id="path148"
       sodipodi:type="arc"
       sodipodi:cx="100.88738"
       sodipodi:cy="216.50713"
       sodipodi:rx="12.262933"
       sodipodi:ry="9.2524271"
       sodipodi:start="0"
       sodipodi:end="3.1477676"
       sodipodi:open="true"
       sodipodi:arc-type="arc"
       d="m 113.15032,216.50713 a 12.262933,9.2524271 0 0 1 -6.15334,8.02234 12.262933,9.2524271 0 0 1 -12.28473,-0.0286 12.262933,9.2524271 0 0 1 -6.087566,-8.05086" />
    <path
       style="fill:none;stroke:#000000;stroke-width:0.264999;stroke-dasharray:none;stroke-opacity:1"
       d="m 114.20156,218.72711 c 0,0 0,0 -1.01456,-2.36565 l -1.98544,1.89099"
       id="path149" />
    <path
       style="fill:none;stroke:#000000;stroke-width:0.458309;stroke-dasharray:none;stroke-opacity:1"
       id="path148-7"
       sodipodi:type="arc"
       sodipodi:cx="-187.83186"
       sodipodi:cy="84.978485"
       sodipodi:rx="12.262933"
       sodipodi:ry="9.2524271"
       sodipodi:start="0"
       sodipodi:end="3.1477676"
       sodipodi:open="true"
       sodipodi:arc-type="arc"
       d="m -175.56893,84.978485 a 12.262933,9.2524271 0 0 1 -6.15334,8.022342 12.262933,9.2524271 0 0 1 -12.28473,-0.02862 12.262933,9.2524271 0 0 1 -6.08756,-8.050858"
       transform="rotate(-95.456809)" />
    <path
       style="fill:none;stroke:#000000;stroke-width:0.264999;stroke-dasharray:none;stroke-opacity:1"
       d="m 103.39912,165.43462 c 0,0 0,0 -2.25845,1.23492 l 2.07123,1.79662"
       id="path149-5" />
    <path
       style="fill:none;stroke:#000000;stroke-width:0.458309;stroke-dasharray:none;stroke-opacity:1"
       id="path148-0"
       sodipodi:type="arc"
       sodipodi:cx="129.19495"
       sodipodi:cy="-33.205334"
       sodipodi:rx="12.262933"
       sodipodi:ry="9.2524271"
       sodipodi:start="0"
       sodipodi:end="3.1477676"
       sodipodi:open="true"
       sodipodi:arc-type="arc"
       d="m 141.45788,-33.205334 a 12.262933,9.2524271 0 0 1 -6.15334,8.022342 12.262933,9.2524271 0 0 1 -12.28473,-0.02862 12.262933,9.2524271 0 0 1 -6.08756,-8.050858"
       transform="rotate(77.27446)" />
    <path
       style="fill:none;stroke:#000000;stroke-width:0.264999;stroke-dasharray:none;stroke-opacity:1"
       d="m 61.616288,132.18312 c 0,0 0,0 2.084053,-1.51075 l -2.281895,-1.52012"
       id="path149-55" />
    <path
       style="fill:none;stroke:#000000;stroke-width:0.264999;stroke-dasharray:none;stroke-opacity:1"
       d="m 56.85165,108.79877 c 0,0 0,0 1.396759,-2.16211 l -2.677158,-0.59214"
       id="path149-55-7" />
    <path
       style="fill:none;stroke:#000000;stroke-width:0.366407;stroke-dasharray:none;stroke-opacity:1"
       id="path148-0-3"
       sodipodi:type="arc"
       sodipodi:cx="15.107261"
       sodipodi:cy="-144.45239"
       sodipodi:rx="9.1451712"
       sodipodi:ry="7.9299059"
       sodipodi:start="0"
       sodipodi:end="3.1477676"
       sodipodi:open="true"
       sodipodi:arc-type="arc"
       d="m 24.252432,-144.45239 a 9.1451712,7.9299059 0 0 1 -4.588897,6.87564 9.1451712,7.9299059 0 0 1 -9.161425,-0.0245 9.1451712,7.9299059 0 0 1 -4.5398461,-6.90009"
       transform="matrix(-0.44678533,0.8946412,-0.92352415,-0.38354028,0,0)" />
    <path
       style="fill:none;stroke:#000000;stroke-width:0.211604;stroke-dasharray:none;stroke-opacity:1"
       d="m 120.46222,77.072163 c 0,0 0,0 2.21048,0.100726 l -0.83521,-1.946254"
       id="path149-55-79" />
    <path
       style="fill:none;stroke:#000000;stroke-width:0.211604;stroke-dasharray:none;stroke-opacity:1"
       d="m 128.81059,61.318971 c 0,0 0,0 2.05557,-0.597393 l -1.57479,-1.59436"
       id="path149-55-7-0" />
    <path
       style="fill:none;stroke:#000000;stroke-width:0.366407;stroke-dasharray:none;stroke-opacity:1"
       id="path148-0-3-8"
       sodipodi:type="arc"
       sodipodi:cx="148.58571"
       sodipodi:cy="111.961"
       sodipodi:rx="9.1451712"
       sodipodi:ry="7.9299059"
       sodipodi:start="0"
       sodipodi:end="3.1477676"
       sodipodi:open="true"
       sodipodi:arc-type="arc"
       d="m 157.73088,111.961 a 9.1451712,7.9299059 0 0 1 -4.5889,6.87565 9.1451712,7.9299059 0 0 1 -9.16142,-0.0245 9.1451712,7.9299059 0 0 1 -4.53985,-6.90009"
       transform="matrix(0.99967234,0.02559728,0.04392793,0.9990347,0,0)" />
    <path
       style="fill:none;stroke:#000000;stroke-width:0.211604;stroke-dasharray:none;stroke-opacity:1"
       d="m 163.46471,117.81129 c 0,0 0,0 -0.84543,-2.0449 l -1.40898,1.58123"
       id="path149-55-79-4" />
    <path
       style="fill:none;stroke:#000000;stroke-width:0.211604;stroke-dasharray:none;stroke-opacity:1"
       d="m 145.65819,116.9247 c 0,0 0,0 -1.41214,-1.60876 l -0.77685,2.10201"
       id="path149-55-7-0-5" />
    <path
       style="fill:none;stroke:#000000;stroke-width:0.264999;stroke-dasharray:none;stroke-opacity:1"
       d="m 105.12253,189.28121 c 0,0 0,0 -1.73591,1.90059 l 2.54193,1.02782"
       id="path149-5-0" />
    <path
       style="fill:none;stroke:#000000;stroke-width:0.264999;stroke-dasharray:none;stroke-opacity:1"
       d="m 89.951185,218.47474 c 0,0 0,0 -1.262802,-2.24297 l -1.770825,2.09332"
       id="path149-5-5" />
    <path
       style="fill:none;stroke:#2635f7;stroke-width:0.42184139;stroke-dasharray:none;stroke-opacity:1"
       d="m 149.00483,274.4257 35.67062,-0.006"
       id="path151" />
    <path
       style="fill:none;stroke:#2635f7;stroke-width:0.294897;stroke-dasharray:none;stroke-opacity:1"
       d="m 184.59565,274.43446 c -1.8891,0.8852 -1.85036,0.9038 -1.85036,0.9038"
       id="path152" />
    <path
       style="fill:none;stroke:#2635f7;stroke-width:0.294897;stroke-dasharray:none;stroke-opacity:1"
       d="m 184.67804,274.39569 c -1.87823,-0.9406 -1.87823,-0.9406 -1.87823,-0.9406"
       id="path153" />
    <path
       style="fill:none;stroke:#f1e84c;stroke-width:0.294897;stroke-dasharray:none;stroke-opacity:1"
       d="m 183.72944,262.5072 0.0435,-1.2719 -1.6654,0.24643"
       id="path154" />
    <path
       style="fill:none;stroke:#6dd070;stroke-width:0.294897;stroke-dasharray:none;stroke-opacity:1"
       d="m 167.1302,250.98325 0.65612,1.02088"
       id="path155" />
    <path
       style="fill:none;stroke:#6dd070;stroke-width:0.294897;stroke-dasharray:none;stroke-opacity:1"
       d="m 167.06733,251.00444 -0.77468,0.96351"
       id="path156" />
    <path
       style="fill:none;stroke:#6dd070;stroke-width:0.37943218;stroke-dasharray:none;stroke-opacity:1"
       d="m 167.08673,251.02932 0.23007,23.5233"
       id="path157" />
    <path
       style="fill:none;stroke:#e9f726;stroke-width:0.50302025;stroke-dasharray:none;stroke-opacity:1"
       d="M 155.57434,283.72223 183.78356,261.3761"
       id="path158" />
    <text
       xml:space="preserve"
       style="font-size:1.93177px;fill:none;stroke:#f1e84c;stroke-width:0.294897;stroke-dasharray:none;stroke-opacity:1"
       x="149.51767"
       y="278.94635"
       id="text158"
       transform="scale(1.1151252,0.8967603)"><tspan
         sodipodi:role="line"
         id="tspan158"
         style="stroke:#4cf176;stroke-width:0.294897;stroke-opacity:1;stroke-dasharray:none"
         x="149.51767"
         y="278.94635">z</tspan></text>
    <text
       xml:space="preserve"
       style="font-size:1.93177px;fill:none;stroke:#4cf176;stroke-width:0.294897;stroke-dasharray:none;stroke-opacity:1"
       x="165.2661"
       y="290.79034"
       id="text159"
       transform="scale(1.1151252,0.8967603)"><tspan
         sodipodi:role="line"
         id="tspan159"
         style="stroke:#e7f14c;stroke-width:0.294897;stroke-opacity:1;stroke-dasharray:none"
         x="165.2661"
         y="290.79034">x</tspan></text>
    <text
       xml:space="preserve"
       style="font-size:1.93177px;fill:none;stroke:#e7f14c;stroke-width:0.294897;stroke-dasharray:none;stroke-opacity:1"
       x="167.23936"
       y="306.009"
       id="text160"
       transform="scale(1.1151252,0.8967603)"><tspan
         sodipodi:role="line"
         id="tspan160"
         style="stroke:#1d35ed;stroke-width:0.294897;stroke-opacity:1;stroke-dasharray:none"
         x="167.23936"
         y="306.009">y</tspan></text>
    <text
       xml:space="preserve"
       style="font-size:13.3812px;fill:none;stroke:#1d35ed;stroke-width:1.11686;stroke-dasharray:none;stroke-opacity:1"
       x="60.242733"
       y="249.36555"
       id="text161"
       transform="scale(1.0152075,0.98502028)"><tspan
         sodipodi:role="line"
         id="tspan161"
         style="stroke:#010101;stroke-width:1.11686;stroke-opacity:1"
         x="60.242733"
         y="249.36555">BASE</tspan></text>
    <text
       xml:space="preserve"
       style="font-size:7.75337px;fill:none;stroke:#1d35ed;stroke-width:0.647134;stroke-dasharray:none;stroke-opacity:1"
       x="45.634769"
       y="182.00168"
       id="text161-5-27-0"
       transform="scale(0.99359292,1.0064484)"><tspan
         sodipodi:role="line"
         id="tspan161-8-3-8"
         style="stroke:#010101;stroke-width:0.647134;stroke-opacity:1"
         x="45.634769"
         y="182.00168">EIXO 2</tspan></text>
    <text
       xml:space="preserve"
       style="font-size:7.75337px;fill:none;stroke:#1d35ed;stroke-width:0.647134;stroke-dasharray:none;stroke-opacity:1"
       x="23.029457"
       y="123.7112"
       id="text161-5-27-3"
       transform="scale(0.99359292,1.0064484)"><tspan
         sodipodi:role="line"
         id="tspan161-8-3-82"
         style="stroke:#010101;stroke-width:0.647134;stroke-opacity:1"
         x="23.029457"
         y="123.7112">EIXO 3</tspan></text>
    <text
       xml:space="preserve"
       style="font-size:7.75337px;fill:none;stroke:#1d35ed;stroke-width:0.647134;stroke-dasharray:none;stroke-opacity:1"
       x="115.99266"
       y="206.74533"
       id="text161-5-27-1"
       transform="scale(0.99359292,1.0064484)"><tspan
         sodipodi:role="line"
         id="tspan161-8-3-2"
         style="stroke:#010101;stroke-width:0.647134;stroke-opacity:1"
         x="115.99266"
         y="206.74533">EIXO 1</tspan></text>
    <text
       xml:space="preserve"
       style="font-size:7.75337px;fill:none;stroke:#1d35ed;stroke-width:0.647134;stroke-dasharray:none;stroke-opacity:1"
       x="163.87337"
       y="75.573639"
       id="text161-5-27-01"
       transform="scale(0.99359292,1.0064484)"><tspan
         sodipodi:role="line"
         id="tspan161-8-3-4"
         style="stroke:#010101;stroke-width:0.647134;stroke-opacity:1"
         x="163.87337"
         y="75.573639">EIXO 5</tspan></text>
    <g
       id="g1"
       transform="translate(17.919819,16.637033)">
      <text
         xml:space="preserve"
         style="font-size:7.75337px;fill:none;stroke:#1d35ed;stroke-width:0.647134;stroke-dasharray:none;stroke-opacity:1"
         x="111.62059"
         y="112.66016"
         id="text161-5-27-9"
         transform="scale(0.99359293,1.0064484)"><tspan
           sodipodi:role="line"
           id="tspan161-8-3-5"
           style="stroke:#010101;stroke-width:0.647134;stroke-opacity:1"
           x="111.62059"
           y="112.66016">FERRAMENTA</tspan></text>
    </g>
    <path
       style="fill:none;stroke:#010101;stroke-width:0.294897;stroke-dasharray:none;stroke-opacity:1"
       d="m 85.2519,117.18923 9.746692,-8.17651"
       id="path161" />
    <path
       style="fill:none;stroke:#010101;stroke-width:0.294897;stroke-dasharray:none;stroke-opacity:1"
       d="m 82.901471,115.11178 4.913271,4.50804"
       id="path162" />
    <path
       style="fill:none;stroke:#010101;stroke-width:0.294897;stroke-dasharray:none;stroke-opacity:1"
       d="m 83.440814,119.54381 3.820702,-4.05785"
       id="path163" />
    <path
       style="fill:none;stroke:#010101;stroke-width:0.294897;stroke-dasharray:none;stroke-opacity:1"
       d="m 92.22302,108.39413 6.083305,1.89099"
       id="path164" />
    <path
       style="fill:none;stroke:#010101;stroke-width:0.294897;stroke-dasharray:none;stroke-opacity:1"
       d="m 95.561749,107.38268 -1.622411,4.24385"
       id="path165" />
    <ellipse
       style="fill:none;stroke:#000000;stroke-width:0.278894;stroke-dasharray:none;stroke-opacity:1"
       id="path72-4-8-9"
       cx="115.53677"
       cy="-152.5569"
       rx="5.7033277"
       ry="7.7384539"
       transform="matrix(0.01113408,0.99993801,-0.99998176,0.00604061,0,0)" />
    <ellipse
       style="fill:none;stroke:#000000;stroke-width:0.264999;stroke-dasharray:none;stroke-opacity:1"
       id="path72-7-8-3-4"
       cx="95.267944"
       cy="175.48021"
       rx="6.3142424"
       ry="6.3105884"
       clip-path="url(#clipPath127-6-8-9)"
       transform="matrix(0.01005684,0.9031922,-1.2262426,0.0074074,368.05389,11.068153)" />
    <path
       style="fill:none;stroke:#000000;stroke-width:0.278892;stroke-dasharray:none;stroke-opacity:1"
       d="m 161.55042,98.339336 0.0844,16.296554 v 0"
       id="path73-3-0-8" />
    <path
       style="fill:none;stroke:#000000;stroke-width:0.278892;stroke-dasharray:none;stroke-opacity:1"
       d="m 146.05182,98.461014 0.10939,16.315716"
       id="path74-7-7-73" />
    <path
       style="fill:none;stroke:#000000;stroke-width:0.278892;stroke-dasharray:none;stroke-opacity:1"
       d="m 155.69367,112.90488 -4.48779,3.63361"
       id="path140-9" />
    <path
       style="fill:none;stroke:#000000;stroke-width:0.278892;stroke-dasharray:none;stroke-opacity:1"
       d="m 151.12431,112.96982 4.59817,3.31944"
       id="path141-2" />
    <path
       style="fill:none;stroke:#000000;stroke-width:0.366407;stroke-dasharray:none;stroke-opacity:1"
       id="path148-0-3-7"
       sodipodi:type="arc"
       sodipodi:cx="-96.389496"
       sodipodi:cy="-85.326149"
       sodipodi:rx="9.1451712"
       sodipodi:ry="7.9299059"
       sodipodi:start="0"
       sodipodi:end="3.1477676"
       sodipodi:open="true"
       sodipodi:arc-type="arc"
       d="m -87.244325,-85.326149 a 9.1451712,7.9299059 0 0 1 -4.588897,6.875647 9.1451712,7.9299059 0 0 1 -9.161428,-0.02453 9.1451712,7.9299059 0 0 1 -4.53984,-6.900086"
       transform="matrix(-0.99895936,-0.04560909,-0.02391494,-0.999714,0,0)" />
    <path
       style="fill:none;stroke:#000000;stroke-width:0.211604;stroke-dasharray:none;stroke-opacity:1"
       d="m 88.365446,87.343001 c 0,0 0,0 0.80432,2.061417 l 1.440351,-1.552692"
       id="path149-55-79-7" />
    <path
       style="fill:none;stroke:#000000;stroke-width:0.211604;stroke-dasharray:none;stroke-opacity:1"
       d="m 106.15065,88.585963 c 0,0 0,0 1.37964,1.63672 l 0.81878,-2.086036"
       id="path149-55-7-0-1" />
    <text
       xml:space="preserve"
       style="font-size:7.75337px;fill:none;stroke:#1d35ed;stroke-width:0.647134;stroke-dasharray:none;stroke-opacity:1"
       x="63.77375"
       y="99.386856"
       id="text161-5-27-3-0"
       transform="scale(0.99359292,1.0064484)"><tspan
         sodipodi:role="line"
         id="tspan161-8-3-82-7"
         style="stroke:#010101;stroke-width:0.647134;stroke-opacity:1"
         x="63.77375"
         y="99.386856">EIXO 4</tspan></text>
    <text
       xml:space="preserve"
       style="font-size:7.75337px;fill:none;stroke:#1d35ed;stroke-width:0.647134;stroke-dasharray:none;stroke-opacity:1"
       x="166.88811"
       y="111.73746"
       id="text161-5-27-01-1"
       transform="scale(0.99359292,1.0064484)"><tspan
         sodipodi:role="line"
         id="tspan161-8-3-4-5"
         style="stroke:#010101;stroke-width:0.647134;stroke-opacity:1"
         x="166.88811"
         y="111.73746">EIXO 6</tspan></text>
    <text
       xml:space="preserve"
       style="font-size:1.49929px;fill:none;stroke:#010101;stroke-width:0.139256;stroke-dasharray:none;stroke-opacity:1"
       x="116.72799"
       y="168.8589"
       id="text165"
       transform="scale(0.81892773,1.221109)"><tspan
         sodipodi:role="line"
         id="tspan165"
         style="stroke-width:0.139256"
         x="116.72799"
         y="168.8589" /><tspan
         sodipodi:role="line"
         style="font-style:normal;font-variant:normal;font-weight:normal;font-stretch:normal;font-family:Chandas;-inkscape-font-specification:Chandas;stroke-width:0.139256"
         x="116.72799"
         y="170.73302"
         id="tspan167">       up</tspan><tspan
         sodipodi:role="line"
         style="font-style:normal;font-variant:normal;font-weight:normal;font-stretch:normal;font-family:Chandas;-inkscape-font-specification:Chandas;stroke-width:0.139256"
         x="116.72799"
         y="172.84666"
         id="tspan171">left       right</tspan><tspan
         sodipodi:role="line"
         style="font-style:normal;font-variant:normal;font-weight:normal;font-stretch:normal;font-family:Chandas;-inkscape-font-specification:Chandas;stroke-width:0.139256"
         x="116.72799"
         y="174.96031"
         id="tspan172">      dow</tspan></text>
    <text
       xml:space="preserve"
       style="font-size:1.49929px;fill:none;stroke:#010101;stroke-width:0.139256;stroke-dasharray:none;stroke-opacity:1"
       x="97.300819"
       y="143.26869"
       id="text165-5"
       transform="scale(0.81892772,1.221109)"><tspan
         sodipodi:role="line"
         id="tspan165-7"
         style="stroke-width:0.139256"
         x="97.300819"
         y="143.26869" /><tspan
         sodipodi:role="line"
         style="font-style:normal;font-variant:normal;font-weight:normal;font-stretch:normal;font-family:Chandas;-inkscape-font-specification:Chandas;stroke-width:0.139256"
         x="97.300819"
         y="145.14281"
         id="tspan167-1">       up</tspan><tspan
         sodipodi:role="line"
         style="font-style:normal;font-variant:normal;font-weight:normal;font-stretch:normal;font-family:Chandas;-inkscape-font-specification:Chandas;stroke-width:0.139256"
         x="97.300819"
         y="147.25645"
         id="tspan171-2">left       right</tspan><tspan
         sodipodi:role="line"
         style="font-style:normal;font-variant:normal;font-weight:normal;font-stretch:normal;font-family:Chandas;-inkscape-font-specification:Chandas;stroke-width:0.139256"
         x="97.300819"
         y="149.3701"
         id="tspan172-6">      dow</tspan></text>
    <text
       xml:space="preserve"
       style="font-size:1.49929px;fill:none;stroke:#010101;stroke-width:0.139256;stroke-dasharray:none;stroke-opacity:1"
       x="78.594696"
       y="92.089478"
       id="text165-9"
       transform="scale(0.81892772,1.221109)"><tspan
         sodipodi:role="line"
         id="tspan165-2"
         style="stroke-width:0.139256"
         x="78.594696"
         y="92.089478" /><tspan
         sodipodi:role="line"
         style="font-style:normal;font-variant:normal;font-weight:normal;font-stretch:normal;font-family:Chandas;-inkscape-font-specification:Chandas;stroke-width:0.139256"
         x="78.594696"
         y="93.963593"
         id="tspan167-8">       up</tspan><tspan
         sodipodi:role="line"
         style="font-style:normal;font-variant:normal;font-weight:normal;font-stretch:normal;font-family:Chandas;-inkscape-font-specification:Chandas;stroke-width:0.139256"
         x="78.594696"
         y="96.07724"
         id="tspan171-0">left       right</tspan><tspan
         sodipodi:role="line"
         style="font-style:normal;font-variant:normal;font-weight:normal;font-stretch:normal;font-family:Chandas;-inkscape-font-specification:Chandas;stroke-width:0.139256"
         x="78.594696"
         y="98.190887"
         id="tspan172-5">      dow</tspan></text>
    <text
       xml:space="preserve"
       style="font-size:1.49929px;fill:none;stroke:#010101;stroke-width:0.139256;stroke-dasharray:none;stroke-opacity:1"
       x="170.88857"
       y="-12.141993"
       id="text165-8"
       transform="matrix(0.54106668,0.61472714,-0.91662405,0.80678841,0,0)"><tspan
         sodipodi:role="line"
         id="tspan165-70"
         style="stroke-width:0.139256"
         x="170.88857"
         y="-12.141993" /><tspan
         sodipodi:role="line"
         style="font-style:normal;font-variant:normal;font-weight:normal;font-stretch:normal;font-family:Chandas;-inkscape-font-specification:Chandas;stroke-width:0.139256"
         x="170.88857"
         y="-10.267878"
         id="tspan167-12">       up</tspan><tspan
         sodipodi:role="line"
         style="font-style:normal;font-variant:normal;font-weight:normal;font-stretch:normal;font-family:Chandas;-inkscape-font-specification:Chandas;stroke-width:0.139256"
         x="170.88857"
         y="-8.1542301"
         id="tspan171-7">left       right</tspan><tspan
         sodipodi:role="line"
         style="font-style:normal;font-variant:normal;font-weight:normal;font-stretch:normal;font-family:Chandas;-inkscape-font-specification:Chandas;stroke-width:0.139256"
         x="170.88857"
         y="-6.0405822"
         id="tspan172-1">      dow</tspan></text>
    <text
       xml:space="preserve"
       style="font-size:1.49929px;fill:none;stroke:#010101;stroke-width:0.139256;stroke-dasharray:none;stroke-opacity:1"
       x="162.50092"
       y="56.498981"
       id="text165-2"
       transform="scale(0.81892772,1.221109)"><tspan
         sodipodi:role="line"
         id="tspan165-0"
         style="stroke-width:0.139256"
         x="162.50092"
         y="56.498981" /><tspan
         sodipodi:role="line"
         style="font-style:normal;font-variant:normal;font-weight:normal;font-stretch:normal;font-family:Chandas;-inkscape-font-specification:Chandas;stroke-width:0.139256"
         x="162.50092"
         y="58.373093"
         id="tspan167-3">       up</tspan><tspan
         sodipodi:role="line"
         style="font-style:normal;font-variant:normal;font-weight:normal;font-stretch:normal;font-family:Chandas;-inkscape-font-specification:Chandas;stroke-width:0.139256"
         x="162.50092"
         y="60.48674"
         id="tspan171-1">left       right</tspan><tspan
         sodipodi:role="line"
         style="font-style:normal;font-variant:normal;font-weight:normal;font-stretch:normal;font-family:Chandas;-inkscape-font-specification:Chandas;stroke-width:0.139256"
         x="162.50092"
         y="62.600388"
         id="tspan172-4">      dow</tspan></text>
    <text
       xml:space="preserve"
       style="font-size:1.49929px;fill:none;stroke:#010101;stroke-width:0.139256;stroke-dasharray:none;stroke-opacity:1"
       x="182.08856"
       y="79.966278"
       id="text165-87"
       transform="scale(0.81892772,1.221109)"><tspan
         sodipodi:role="line"
         id="tspan165-21"
         style="stroke-width:0.139256"
         x="182.08856"
         y="79.966278" /><tspan
         sodipodi:role="line"
         style="font-style:normal;font-variant:normal;font-weight:normal;font-stretch:normal;font-family:Chandas;-inkscape-font-specification:Chandas;stroke-width:0.139256"
         x="182.08856"
         y="81.840393"
         id="tspan167-5">       up</tspan><tspan
         sodipodi:role="line"
         style="font-style:normal;font-variant:normal;font-weight:normal;font-stretch:normal;font-family:Chandas;-inkscape-font-specification:Chandas;stroke-width:0.139256"
         x="182.08856"
         y="83.954041"
         id="tspan171-4">left       right</tspan><tspan
         sodipodi:role="line"
         style="font-style:normal;font-variant:normal;font-weight:normal;font-stretch:normal;font-family:Chandas;-inkscape-font-specification:Chandas;stroke-width:0.139256"
         x="182.08856"
         y="86.067688"
         id="tspan172-60">      dow</tspan></text>
    <path
       style="fill:none;stroke:#105e8b;stroke-width:0.294897;stroke-dasharray:none;stroke-opacity:1"
       d="m 95.227766,210.53358 -69.453014,1.47515"
       id="path172" />
    <text
       xml:space="preserve"
       style="font-style:normal;font-variant:normal;font-weight:normal;font-stretch:normal;font-size:3.175px;font-family:Chandas;-inkscape-font-specification:Chandas;fill:none;stroke:#105e8b;stroke-width:0.294897;stroke-dasharray:none;stroke-opacity:1"
       x="3.9356771"
       y="206.2701"
       id="text173"><tspan
         sodipodi:role="line"
         id="tspan173"
         style="stroke-width:0.294897"
         x="3.9356771"
         y="206.2701">controle deslizante</tspan><tspan
         sodipodi:role="line"
         style="stroke-width:0.294897"
         x="3.9356771"
         y="210.74611"
         id="tspan174">para gravação dos movimentos</tspan></text>
    <path
       style="fill:none;stroke:#105e8b;stroke-width:0.294897;stroke-dasharray:none;stroke-opacity:1"
       d="m 97.736332,101.13837 -69.453014,1.47515"
       id="path172-5" />
    <path
       style="fill:none;stroke:#105e8b;stroke-width:0.39;stroke-dasharray:none;stroke-opacity:1"
       d="M 69.070628,112.32486 68.922784,101.91637"
       id="path172-5-6" />
    <text
       xml:space="preserve"
       style="font-style:normal;font-variant:normal;font-weight:normal;font-stretch:normal;font-size:3.175px;font-family:Chandas;-inkscape-font-specification:Chandas;fill:none;stroke:#105e8b;stroke-width:0.294897;stroke-dasharray:none;stroke-opacity:1"
       x="6.4442425"
       y="96.874886"
       id="text173-2"><tspan
         sodipodi:role="line"
         id="tspan173-3"
         style="stroke-width:0.294897"
         x="6.4442425"
         y="96.874886">controle deslizante</tspan><tspan
         sodipodi:role="line"
         style="stroke-width:0.294897"
         x="6.4442425"
         y="101.35089"
         id="tspan174-7">para gravação dos movimentos</tspan></text>
    <path
       style="fill:none;stroke:#105e8b;stroke-width:0.294897;stroke-dasharray:none;stroke-opacity:1"
       d="m 131.46985,72.770753 -69.453016,1.47515"
       id="path172-8" />
    <path
       style="fill:none;stroke:#105e8b;stroke-width:0.19813067;stroke-dasharray:none;stroke-opacity:1"
       d="m 148.35046,102.9492 -31.0078,0.12071"
       id="path172-8-9" />
    <path
       style="fill:none;stroke:#105e8b;stroke-width:0.19499039;stroke-dasharray:none;stroke-opacity:1"
       d="m 117.28259,103.19328 0.005,-30.026918"
       id="path172-8-9-0" />
    <text
       xml:space="preserve"
       style="font-style:normal;font-variant:normal;font-weight:normal;font-stretch:normal;font-size:3.175px;font-family:Chandas;-inkscape-font-specification:Chandas;fill:none;stroke:#105e8b;stroke-width:0.294897;stroke-dasharray:none;stroke-opacity:1"
       x="40.177761"
       y="68.507271"
       id="text173-0"><tspan
         sodipodi:role="line"
         id="tspan173-37"
         style="stroke-width:0.294897"
         x="40.177761"
         y="68.507271">controle deslizante</tspan><tspan
         sodipodi:role="line"
         style="stroke-width:0.294897"
         x="40.177761"
         y="72.983276"
         id="tspan174-9">para gravação dos movimentos</tspan></text>
  </g>
</svg>
